<svg width="83" height="18" viewBox="0 0 83 18" fill="none" xmlns="http://www.w3.org/2000/svg">
<path d="M34.9137 9.39941H30.6002V12.9268H35.611V14H29.2877V4.04688H35.5426V5.12695H30.6002V8.32617H34.9137V9.39941ZM45.531 9.34473C45.531 10.32 45.367 11.1722 45.0388 11.9014C44.7107 12.626 44.2459 13.1797 43.6443 13.5625C43.0427 13.9453 42.3409 14.1367 41.5388 14.1367C40.755 14.1367 40.06 13.9453 39.4539 13.5625C38.8477 13.1751 38.3761 12.626 38.0388 11.915C37.7061 11.1995 37.5352 10.3724 37.5261 9.43359V8.71582C37.5261 7.75879 37.6925 6.91341 38.0252 6.17969C38.3578 5.44596 38.8272 4.88542 39.4334 4.49805C40.044 4.10612 40.7413 3.91016 41.5252 3.91016C42.3227 3.91016 43.0245 4.10384 43.6306 4.49121C44.2413 4.87402 44.7107 5.43229 45.0388 6.16602C45.367 6.89518 45.531 7.74512 45.531 8.71582V9.34473ZM44.2254 8.70215C44.2254 7.52181 43.9884 6.61719 43.5144 5.98828C43.0405 5.35482 42.3774 5.03809 41.5252 5.03809C40.6957 5.03809 40.0418 5.35482 39.5632 5.98828C39.0893 6.61719 38.8455 7.49219 38.8318 8.61328V9.34473C38.8318 10.4886 39.0711 11.3887 39.5496 12.0449C40.0326 12.6966 40.6957 13.0225 41.5388 13.0225C42.3865 13.0225 43.0427 12.7148 43.5076 12.0996C43.9724 11.4798 44.2117 10.5934 44.2254 9.44043V8.70215ZM48.9501 12.9268H54.6444V14H47.3983V13.0156L52.8534 5.12695H47.4872V4.04688H54.4257V5.01074L48.9501 12.9268ZM59.4102 10.2881H56.0742V9.25586H59.4102V10.2881ZM61.4757 14V4.04688H64.7296C65.8097 4.04688 66.6209 4.27018 67.1632 4.7168C67.7101 5.16341 67.9835 5.82422 67.9835 6.69922C67.9835 7.16406 67.8514 7.5765 67.587 7.93652C67.3227 8.29199 66.9627 8.56771 66.507 8.76367C67.0447 8.91406 67.4685 9.20117 67.7784 9.625C68.0929 10.0443 68.2501 10.5456 68.2501 11.1289C68.2501 12.0221 67.9607 12.724 67.382 13.2344C66.8032 13.7448 65.9851 14 64.9279 14H61.4757ZM62.7882 9.34473V12.9268H64.9552C65.5659 12.9268 66.0467 12.7695 66.3976 12.4551C66.753 12.1361 66.9308 11.6986 66.9308 11.1426C66.9308 9.94401 66.2791 9.34473 64.9757 9.34473H62.7882ZM62.7882 8.29199H64.7706C65.3448 8.29199 65.8029 8.14844 66.1446 7.86133C66.491 7.57422 66.6642 7.18457 66.6642 6.69238C66.6642 6.14551 66.5047 5.74902 66.1857 5.50293C65.8667 5.25228 65.3813 5.12695 64.7296 5.12695H62.7882V8.29199ZM70.2952 10.2334C70.2952 9.50879 70.4364 8.8571 70.719 8.27832C71.0061 7.69954 71.4026 7.25293 71.9084 6.93848C72.4189 6.62402 72.9999 6.4668 73.6516 6.4668C74.6588 6.4668 75.4722 6.81543 76.092 7.5127C76.7164 8.20996 77.0286 9.13737 77.0286 10.2949V10.3838C77.0286 11.1038 76.8896 11.751 76.6116 12.3252C76.3381 12.8949 75.9439 13.3392 75.4289 13.6582C74.9185 13.9772 74.3306 14.1367 73.6653 14.1367C72.6627 14.1367 71.8492 13.7881 71.2248 13.0908C70.6051 12.3936 70.2952 11.4707 70.2952 10.3223V10.2334ZM71.5666 10.3838C71.5666 11.2041 71.7558 11.8626 72.134 12.3594C72.5168 12.8561 73.0273 13.1045 73.6653 13.1045C74.3079 13.1045 74.8183 12.8538 75.1965 12.3525C75.5748 11.8467 75.7639 11.1403 75.7639 10.2334C75.7639 9.4222 75.5702 8.76595 75.1829 8.26465C74.8 7.75879 74.2896 7.50586 73.6516 7.50586C73.0273 7.50586 72.5237 7.75423 72.1409 8.25098C71.758 8.74772 71.5666 9.45866 71.5666 10.3838ZM80.9603 4.8125V6.60352H82.3412V7.58105H80.9603V12.168C80.9603 12.4642 81.0218 12.6875 81.1449 12.8379C81.2679 12.9837 81.4776 13.0566 81.7738 13.0566C81.9196 13.0566 82.1201 13.0293 82.3754 12.9746V14C82.0427 14.0911 81.7191 14.1367 81.4046 14.1367C80.8395 14.1367 80.4134 13.9658 80.1263 13.624C79.8392 13.2822 79.6957 12.7969 79.6957 12.168V7.58105H78.349V6.60352H79.6957V4.8125H80.9603Z" fill="white"/>
<path d="M6.27827 11.5679L6.0136 15.1975C6.39227 15.1975 6.55628 15.0389 6.75295 14.8484L8.52832 13.1942L12.2071 15.8208C12.8818 16.1874 13.3571 15.9943 13.5391 15.2157L15.9538 4.18391L15.9545 4.18326C16.1685 3.21086 15.5938 2.83061 14.9365 3.06916L0.742803 8.36729C-0.225887 8.73388 -0.21122 9.26038 0.578132 9.49893L4.20689 10.5994L12.6358 5.45725C13.0324 5.20115 13.3931 5.34285 13.0964 5.59895L6.27827 11.5679Z" fill="white"/>
</svg>
