<svg width="230" height="65" viewBox="0 0 230 65" fill="none" xmlns="http://www.w3.org/2000/svg">
<path d="M127.04 1.39746H102.736V5.67536H112.622V42.1142H117.138V5.67536H127.04V1.39746Z" fill="url(#paint0_linear)"/>
<path d="M130.707 19.5324V16.7884H126.31V42.1149H130.707V28.7528C130.707 24.6113 131.44 22.8899 132.173 21.9184C132.837 21.0663 133.945 20.3334 135.718 20.3334C136.382 20.3334 137.303 20.5209 138.274 21.1856L140.354 17.2145C139.263 16.6691 137.797 16.1748 136.451 16.1748C133.025 16.1748 131.133 18.8506 130.707 19.5324Z" fill="url(#paint1_linear)"/>
<path d="M162.493 20.3845C161.334 18.8506 158.709 16.1748 153.835 16.1748C147.358 16.1748 141.512 20.6913 141.512 29.4175C141.512 38.3312 147.426 42.8477 153.835 42.8477C158.283 42.8477 161.044 40.4617 162.493 38.5698V42.1149H166.89V16.7884H162.493V20.3845ZM154.329 38.9448C149.079 38.9448 146.029 34.8544 146.029 29.4175C146.029 23.2478 150 20.0777 154.329 20.0777C158.232 20.0777 162.748 22.941 162.748 29.4687C162.748 34.4794 159.698 38.9448 154.329 38.9448Z" fill="url(#paint2_linear)"/>
<path d="M227.549 20.8106C226.015 18.612 222.913 16.1748 217.97 16.1748C210.335 16.1748 205.699 22.0377 205.699 29.605C205.699 38.9959 212.107 42.8477 218.209 42.8477C221.447 42.8477 224.31 41.8081 226.628 39.7288C227.907 38.5698 229.014 37.0359 229.747 35.6384L226.083 33.6273C225.537 34.8544 224.617 36.1326 223.458 37.1041C221.992 38.3312 220.339 38.9278 218.277 38.9278C213.88 38.9278 210.284 35.5702 210.215 30.3208H229.935C230.054 26.9803 229.151 23.0774 227.549 20.8106ZM210.522 26.6735C211.187 22.8899 214.238 20.0777 217.97 20.0777C221.686 20.0777 224.685 22.7024 225.418 26.6735H210.522Z" fill="url(#paint3_linear)"/>
<path d="M194.601 20.3853C193.442 18.8514 190.817 16.1756 185.943 16.1756C179.466 16.1756 173.621 20.6921 173.621 29.4183C173.621 38.3321 179.535 42.8486 185.943 42.8486C190.391 42.8486 193.152 40.4625 194.601 38.5707V42.1157H198.998V3.75098H194.601V20.3853ZM186.42 38.9456C181.171 38.9456 178.12 34.8552 178.12 29.4183C178.12 23.2486 182.091 20.0786 186.42 20.0786C190.323 20.0786 194.84 22.9419 194.84 29.4695C194.84 34.4802 191.789 38.9456 186.42 38.9456Z" fill="url(#paint4_linear)"/>
<path d="M39.7116 39.7135C39.7116 40.8724 38.7742 41.8098 37.6153 41.8098C37.0358 41.8098 36.5075 41.5882 36.1325 41.2133L28.9402 33.8335C29.9628 33.2199 30.8831 32.47 31.7353 31.6349C31.8887 31.4815 32.0421 31.3111 32.2125 31.1406L36.6097 35.6401L39.1492 38.2648C39.5071 38.6397 39.7116 39.151 39.7116 39.7135Z" fill="url(#paint5_linear)"/>
<path fill-rule="evenodd" clip-rule="evenodd" d="M15.084 16.7181C14.3511 16.5136 15.1692 15.9341 14.7943 15.5762C14.4193 15.2013 14.8624 14.8263 15.1692 14.5195C15.8169 13.8208 15.459 15.4228 15.9021 16.1046C16.3623 16.7863 15.8169 16.9227 15.084 16.7181ZM35.0418 21.0472C35.0418 23.6037 34.3431 25.9898 33.15 28.052C33.133 27.677 33.0648 27.4384 32.9796 27.1487C32.8432 26.6885 32.6217 27.1487 32.2638 27.5237C31.9058 27.8986 32.4512 26.7056 31.3093 27.251C30.1674 27.7964 30.3038 27.9668 29.8606 28.3417C29.3493 28.7849 28.6335 28.6144 28.3097 29.3814C27.9859 30.1483 27.1337 31.8868 27.9347 31.4436C28.7187 31.0005 29.6732 30.2165 30.2015 30.5403C30.4572 30.7108 30.5594 30.9835 30.6617 31.1709C30.7128 31.1198 30.781 31.0687 30.8321 31.0005C28.3267 33.4207 24.918 34.9205 21.1685 34.9205C13.8228 34.9205 7.80647 29.211 7.31221 22.0016C7.60195 23.1094 7.94282 23.6378 8.67568 23.6378C9.49377 23.6378 9.69829 24.3365 9.61307 24.6604C9.52785 24.9842 9.52785 25.2398 9.81759 25.9727C10.1073 26.7056 9.52785 26.9612 9.98802 27.7623C10.4312 28.5803 10.7209 29.1428 11.1299 29.637C11.539 30.1313 12.5104 30.7449 12.8854 30.1654C13.2604 29.5859 13.0558 28.6144 13.5842 28.3247C14.1125 28.035 13.908 26.6885 13.7546 26.075C13.5842 25.4614 14.9306 25.0183 15.3908 23.9105C15.8339 22.8026 15.7657 22.5299 15.067 22.7345C14.3682 22.939 13.3967 21.6948 13.0218 20.4506C12.6468 19.2235 12.8513 19.4621 13.6353 20.7233C14.4193 21.9845 14.3682 22.4788 15.1863 22.0698C16.0043 21.6607 17.4701 21.2176 17.3849 20.3995C17.2996 19.5814 16.7713 19.1724 16.3623 19.5814C15.9532 19.9905 15.0499 18.7633 15.1863 18.4054C15.3056 18.0305 16.0043 18.5759 16.5327 18.9849C17.061 19.394 17.5553 19.428 18.2541 19.3599C18.9529 19.2746 19.0722 19.7689 19.4812 20.2973C19.8902 20.8256 20.0607 19.82 20.4186 20.4677C20.7935 21.1153 20.1289 21.5244 20.8276 22.4959C21.5264 23.4844 21.9355 23.6718 22.0548 22.7345C22.1741 21.7971 22.2934 21.4051 22.9069 20.9108C23.5205 20.4166 23.8954 19.5133 24.4579 20.212C25.0374 20.9108 24.492 21.7289 25.3953 22.0016C26.2986 22.2913 26.3838 22.5299 27.27 22.8538C28.1733 23.1776 28.4119 22.0016 27.8495 21.2687C27.27 20.5359 28.3779 20.2802 29.0766 20.0927C29.7754 19.8882 30.2185 19.2406 29.8947 18.3713C29.5709 17.5192 28.4631 16.1727 29.0766 15.883C29.6902 15.5933 30.2185 16.0023 30.4231 16.7352C30.6276 17.468 31.2752 16.8545 30.5935 15.8319C29.8947 14.8093 30.8832 14.5195 30.9685 13.8378C31.0537 13.139 29.8266 12.6107 29.5027 11.8437C29.1959 11.1109 29.8095 11.0256 30.4742 10.7018C30.7639 10.9745 31.0537 11.2472 31.3264 11.5369C31.4286 11.7415 31.565 11.946 31.7184 12.1335C32.0933 12.5936 32.4683 13.7696 32.4683 13.2754C32.4683 13.1561 32.4853 13.0538 32.4853 12.9345C34.0874 15.2354 35.0418 18.0305 35.0418 21.0472ZM7.29517 21.8482C7.29517 21.7971 7.29517 21.7459 7.29517 21.6948C7.29517 21.7459 7.29517 21.7971 7.29517 21.8482ZM7.31221 20.0416C7.31221 20.0075 7.31221 19.9564 7.32925 19.9223C7.31221 19.9564 7.31221 20.0075 7.31221 20.0416ZM7.3463 19.7178C7.3463 19.6496 7.36334 19.5985 7.36334 19.5303C7.3463 19.5985 7.3463 19.6496 7.3463 19.7178ZM7.38038 19.411C7.39743 19.3258 7.39743 19.2235 7.41447 19.1383C7.77238 16.5988 8.81203 14.2809 10.3459 12.3721C10.2778 12.4402 10.2266 12.5255 10.1585 12.6107C9.93689 12.9856 9.85168 13.3265 10.1073 13.4288C10.6016 13.5992 10.9595 12.9856 11.4538 12.0823C11.948 11.179 12.2718 11.6733 11.8969 12.2869C11.5219 12.9004 10.3459 13.7526 9.64716 14.2128C8.94838 14.6559 8.65864 15.3206 8.74386 16.0023C8.82907 16.7011 8.33481 16.7863 8.09621 17.1783C7.94282 17.434 7.95986 17.86 8.09621 17.9793C8.01099 18.0305 7.94282 18.0987 7.89169 18.2009C7.70421 18.4907 7.53377 18.8145 7.39743 19.1553C7.39743 19.2235 7.38038 19.3087 7.38038 19.411ZM10.363 12.3209C10.4312 12.2528 10.4823 12.1675 10.5505 12.0994C10.4823 12.1846 10.4141 12.2528 10.363 12.3209ZM10.5675 12.0653C10.6357 11.9971 10.6868 11.9289 10.755 11.8437C10.7038 11.9289 10.6357 11.9971 10.5675 12.0653ZM10.7891 11.8096C10.8402 11.7415 10.9084 11.6903 10.9595 11.6222C10.9084 11.6903 10.8572 11.7585 10.7891 11.8096ZM11.0277 11.571C11.0788 11.5029 11.147 11.4517 11.1981 11.3836C11.147 11.4347 11.0788 11.5029 11.0277 11.571ZM11.2492 11.3324C11.3004 11.2642 11.3685 11.2131 11.4197 11.162C11.3685 11.2131 11.3174 11.2642 11.2492 11.3324ZM11.4878 11.0768C11.539 11.0256 11.6071 10.9745 11.6583 10.9063C11.6071 10.9745 11.556 11.0256 11.4878 11.0768ZM11.7265 10.8552C11.7946 10.8041 11.8458 10.7359 11.9139 10.6848C11.8458 10.7529 11.7946 10.8041 11.7265 10.8552ZM11.9821 10.6336C14.4364 8.48617 17.6405 7.17383 21.1515 7.17383C23.9977 7.17383 26.6394 8.026 28.838 9.49173C27.6961 8.72478 26.4349 8.12826 25.0885 7.73626C24.918 7.73626 24.7135 7.73626 24.4749 7.73626C22.9581 7.65104 22.4468 7.20792 21.2878 7.20792C20.1459 7.20792 19.3619 7.32722 18.7142 8.31574C18.0666 9.30425 18.4756 7.87261 17.5723 8.28165C16.669 8.69069 16.8395 8.98043 16.0214 9.21904C15.2033 9.45764 13.6524 11.5881 13.4137 11.1449C13.1751 10.7018 14.1466 9.88373 13.0899 10.1564C12.6809 10.2416 12.3059 10.4291 11.9821 10.6336ZM28.838 9.49173C28.8892 9.52582 28.9403 9.55991 28.9914 9.59399C28.9403 9.55991 28.8892 9.52582 28.838 9.49173ZM13.3285 15.9001C12.3911 15.9341 11.0788 16.5988 11.8117 17.0079C12.5445 17.4169 13.3285 17.5873 12.5957 18.0646C11.8628 18.5588 10.5164 18.8826 9.90281 18.3884C9.47672 18.0475 8.86316 17.7578 8.40299 17.843C8.42003 17.8089 8.45412 17.7748 8.47116 17.7237C8.8802 17.0249 8.79499 16.0534 9.37446 16.258C9.95394 16.4625 9.69829 17.1613 10.1073 17.1101C10.5164 17.076 9.90281 16.1727 10.1925 15.883C10.4823 15.5933 10.2778 16.9397 10.9254 16.9908C11.5731 17.0249 11.7094 16.6159 11.7435 15.8489C11.7776 15.0649 12.3571 14.4173 13.0047 14.7922C13.6524 15.1672 14.2659 15.8489 13.3285 15.9001ZM15.4078 27.6941C14.8965 28.2736 14.3511 27.7793 14.5557 28.3929C14.7602 29.0064 14.1466 29.4496 14.6579 29.6541C15.1692 29.8586 15.1181 29.6882 15.493 28.8019C15.868 27.8986 15.7487 27.3362 15.4078 27.6941ZM31.9229 15.4399C31.9229 16.0705 32.0422 16.3432 31.7525 16.667C31.4627 16.9908 31.0537 17.6555 31.2582 18.1839C31.4627 18.7122 31.5479 17.6044 31.9058 17.2465C32.2808 16.8715 32.5194 16.7181 32.349 16.0194C32.1956 15.3206 31.9229 15.082 31.9229 15.4399ZM29.213 23.9957C28.9573 24.5581 28.3097 24.2172 28.3097 24.8478C28.3097 25.4784 28.9403 26.484 29.2641 25.8364C29.5879 25.1887 29.8095 25.1546 29.9118 24.507C30.0311 23.8252 29.4346 23.5355 29.213 23.9957ZM25.702 23.8934C25.7361 24.3706 26.2133 24.5411 26.6053 25.2569C26.9803 25.9727 27.3723 26.5351 27.6961 26.5692C28.0199 26.6033 30.0992 27.1998 29.9799 26.6033C29.8777 26.0068 27.9518 26.5863 27.5427 25.683C27.1337 24.7626 25.6509 23.0924 25.702 23.8934ZM33.0989 28.1543C33.0478 28.2224 33.0137 28.2906 32.9625 28.3758C33.0137 28.2906 33.0478 28.2224 33.0989 28.1543ZM32.9284 28.427C32.8773 28.4951 32.8262 28.5803 32.7921 28.6485C32.8432 28.5803 32.8773 28.4951 32.9284 28.427ZM32.741 28.6996C32.6898 28.7678 32.6387 28.853 32.5876 28.9212C32.6387 28.853 32.6898 28.7849 32.741 28.6996ZM32.5705 28.9723C32.5194 29.0405 32.4683 29.1257 32.4171 29.1939C32.4683 29.1257 32.5194 29.0576 32.5705 28.9723ZM32.366 29.245C32.3149 29.3132 32.2638 29.3814 32.2126 29.4666C32.2638 29.3984 32.3149 29.3132 32.366 29.245ZM32.1615 29.5177C32.1104 29.5859 32.0592 29.6541 31.9911 29.7223C32.0592 29.6711 32.1104 29.5859 32.1615 29.5177ZM31.957 29.7904C31.9058 29.8586 31.8547 29.9268 31.7865 29.9949C31.8547 29.9268 31.9058 29.8586 31.957 29.7904ZM31.7354 30.0461C31.6843 30.1143 31.6332 30.1654 31.582 30.2336C31.6332 30.1654 31.6843 30.1143 31.7354 30.0461ZM31.5138 30.3017C31.4627 30.3529 31.4116 30.421 31.3605 30.4722C31.4116 30.421 31.4627 30.3529 31.5138 30.3017ZM31.3093 30.5403C31.2412 30.6085 31.173 30.6767 31.1218 30.7449C31.173 30.6596 31.2412 30.6085 31.3093 30.5403ZM31.0537 30.796C31.0025 30.8471 30.9344 30.9153 30.8832 30.9664C30.9514 30.8983 31.0025 30.8471 31.0537 30.796ZM31.8888 24.7626C31.582 25.0694 31.6502 25.3421 32.1274 25.5296C32.6217 25.7171 32.7751 26.4329 33.0307 26.1602C33.2693 25.8875 33.8147 26.4329 33.7977 25.8875C33.7636 25.3421 33.4398 25.0183 32.9284 25.0694C32.4001 25.1035 32.2467 24.4047 31.8888 24.7626ZM30.2015 21.0812C30.014 21.6437 30.0311 22.0016 30.4401 22.2572C30.8492 22.4959 31.0707 22.8538 30.798 23.1605C30.5253 23.4673 31.0707 23.8423 31.2071 23.3821C31.3434 22.9219 31.0707 22.3425 30.798 21.78C30.5253 21.1835 30.389 20.5359 30.2015 21.0812ZM31.3605 11.6392C31.4116 11.6903 31.4627 11.7415 31.4968 11.7926C31.4627 11.7415 31.4116 11.6903 31.3605 11.6392ZM31.5991 11.8949C31.6332 11.946 31.6843 11.9971 31.7184 12.0482C31.6843 11.9801 31.6332 11.946 31.5991 11.8949ZM31.8206 12.1505C31.8547 12.2016 31.8888 12.2357 31.9229 12.2869C31.8888 12.2357 31.8547 12.2016 31.8206 12.1505ZM32.0422 12.4232C32.0763 12.4573 32.1104 12.5084 32.1445 12.5425C32.0933 12.5084 32.0763 12.4573 32.0422 12.4232ZM32.2467 12.6788C32.2808 12.7129 32.3149 12.7641 32.349 12.7982C32.2978 12.7641 32.2638 12.73 32.2467 12.6788Z" fill="#31A2E8"/>
<path d="M104.512 16.0576H80.9413V20.0799H95.7179L77.4133 41.3841H103.779V37.3448H86.1907L104.512 16.0576Z" fill="url(#paint6_linear)"/>
<path d="M68.9931 19.6531C67.8342 18.1192 65.2095 15.4434 60.3351 15.4434C53.8586 15.4434 48.0127 19.9599 48.0127 28.6861C48.0127 37.5998 53.9268 42.1163 60.3351 42.1163C64.7834 42.1163 67.5444 39.7302 68.9931 37.8384V41.3834H73.3903V16.0569H68.9931V19.6531ZM60.8123 38.2134C55.5629 38.2134 52.5122 34.1229 52.5122 28.6861C52.5122 22.5164 56.4833 19.3463 60.8123 19.3463C64.7152 19.3463 69.2317 22.2096 69.2317 28.7372C69.2317 33.748 66.181 38.2134 60.8123 38.2134Z" fill="url(#paint7_linear)"/>
<path d="M21.2006 0C9.47472 0 0.015625 8.9137 0.015625 21.0486C0.015625 33.1324 9.47472 42.0972 21.2006 42.0972C26.467 42.0972 30.1484 40.3929 32.2617 39.1487C32.2617 39.1487 32.2618 39.1487 28.9894 35.8764C26.2113 37.3591 23.4162 37.8364 21.2006 37.8364C12.0483 37.8364 4.66848 30.3884 4.66848 21.0486C4.66848 11.7088 12.0483 4.26085 21.2006 4.26085C30.3018 4.26085 37.7327 11.7088 37.7327 21.0486C37.7327 26.0423 35.7727 29.4169 34.2388 31.3599C37.5282 34.6492 37.5282 34.6492 37.5282 34.6492C39.7779 31.9905 42.3685 27.6103 42.3685 21.0656C42.3685 8.9137 32.8583 0 21.2006 0Z" fill="url(#paint8_linear)"/>
<path d="M31.7341 10.4827C29.0242 7.77279 25.2917 6.10254 21.1501 6.10254C17.0256 6.10254 13.2761 7.77279 10.5662 10.4827C7.85629 13.1926 6.18604 16.9251 6.18604 21.0666C6.18604 25.2082 7.85629 28.9407 10.5662 31.6506C13.2761 34.3605 17.0086 36.0308 21.1501 36.0308C24.0134 36.0308 26.6722 35.2297 28.939 33.8492C29.9616 33.2356 30.8819 32.4857 31.7341 31.6506C31.8875 31.4972 32.0409 31.3268 32.2113 31.1563C34.6485 28.4976 36.1313 24.9525 36.1313 21.0666C36.1143 16.9251 34.444 13.1756 31.7341 10.4827ZM30.7797 30.6791C30.2002 31.2586 29.5696 31.787 28.8879 32.2471C28.5981 32.4516 28.2913 32.6391 27.9675 32.8266C25.9564 33.9856 23.6385 34.6502 21.1501 34.6502C17.4006 34.6502 13.9919 33.1334 11.5377 30.6621C9.08341 28.2078 7.54951 24.7992 7.54951 21.0496C7.54951 17.3001 9.06637 13.8914 11.5377 11.4371C13.9919 8.98287 17.4006 7.44897 21.1501 7.44897C24.8997 7.44897 28.3084 8.96583 30.7626 11.4371C33.2169 13.8914 34.7508 17.3001 34.7508 21.0496C34.7508 24.8162 33.2339 28.2078 30.7797 30.6791Z" fill="url(#paint9_linear)"/>
<path d="M7.1071 62.7357V63.9798C6.27197 64.44 5.31754 64.6616 4.24381 64.6616C3.35755 64.6616 2.60764 64.4911 1.99408 64.1332C1.38052 63.7753 0.886257 63.2981 0.528346 62.6675C0.170434 62.0369 0 61.3722 0 60.6564C0 59.5145 0.409042 58.543 1.22713 57.759C2.04521 56.975 3.05077 56.583 4.26085 56.583C5.09598 56.583 6.01632 56.8046 7.02188 57.2307V58.4407C6.10154 57.9124 5.19824 57.6567 4.31198 57.6567C3.40868 57.6567 2.65877 57.9465 2.06225 58.5089C1.46573 59.0713 1.15895 59.7872 1.15895 60.6564C1.15895 61.5256 1.44869 62.2414 2.04521 62.7868C2.62468 63.3492 3.39164 63.6219 4.29494 63.6219C5.26641 63.6219 6.2038 63.3322 7.1071 62.7357Z" fill="#A78E69"/>
<path d="M8.33521 56.6836H13.1585V57.6892H9.46007V60.0923H13.0392V61.0978H9.46007V63.5521H13.2607V64.5576H8.33521V56.6836Z" fill="#A78E69"/>
<path d="M30.5757 56.6836H35.399V57.6892H31.7005V60.0923H35.2797V61.0978H31.7005V63.5521H35.5012V64.5576H30.5757V56.6836Z" fill="#A78E69"/>
<path d="M99.6855 56.6836H104.509V57.6892H100.827V60.0923H104.407V61.0978H100.827V63.5521H104.628V64.5576H99.7026V56.6836H99.6855Z" fill="#A78E69"/>
<path d="M159.187 56.6836H164.01V57.6892H160.329V60.0923H163.908V61.0978H160.329V63.5521H164.129V64.5576H159.187V56.6836Z" fill="#A78E69"/>
<path d="M172.238 56.6836H177.061V57.6892H173.379V60.0923H176.959V61.0978H173.379V63.5521H177.18V64.5576H172.255V56.6836H172.238Z" fill="#A78E69"/>
<path d="M208.61 56.6836H213.433V57.6892H209.752V60.0923H213.331V61.0978H209.752V63.5521H213.553V64.5576H208.61V56.6836Z" fill="#A78E69"/>
<path d="M20.7771 56.6836H21.9872V64.5747H21.0157L15.7322 58.3879V64.5747H14.6755V56.6836H15.6129L20.7771 62.751V56.6836Z" fill="#A78E69"/>
<path d="M221 56.6836H222.211V64.5747H221.239L215.956 58.3879V64.5747H214.899V56.6836H215.836L221 62.751V56.6836Z" fill="#A78E69"/>
<path d="M22.8203 56.665H29.6888V57.6706H26.8085V64.5732H25.6666V57.6706H22.8203V56.665Z" fill="#A78E69"/>
<path d="M223.132 56.665H230V57.6706H227.12V64.5732H225.978V57.6706H223.132V56.665Z" fill="#A78E69"/>
<path d="M36.8132 64.5747V56.6836H38.9948C39.7958 56.6836 40.4605 56.8029 40.9377 57.1949C41.449 57.6039 41.6024 58.2005 41.6024 58.8822C41.6024 59.3424 41.4831 59.7344 41.2616 60.0752C41.04 60.4161 40.6991 60.6547 40.273 60.8251C40.5287 60.9956 40.6821 61.2001 40.8866 61.5069C41.1252 61.8477 42.8977 64.5747 42.8977 64.5747H41.6024C41.6024 64.5747 40.0174 62.1545 39.864 61.933C39.5402 61.4898 39.0459 60.9615 38.2449 60.9615H37.9551V64.5747H36.8132ZM37.9551 57.5869V60.0752H38.6028C39.1823 60.0752 40.4946 60.1264 40.4946 58.8651C40.4946 57.9959 39.9492 57.7573 39.7106 57.7062C38.9777 57.5528 37.9551 57.5869 37.9551 57.5869Z" fill="#A78E69"/>
<path d="M61.2029 64.5747V56.6836H63.3844C64.1855 56.6836 64.8502 56.8029 65.3274 57.1949C65.8387 57.6039 65.9921 58.2005 65.9921 58.8822C65.9921 59.3424 65.8728 59.7344 65.6512 60.0752C65.4296 60.4161 65.0888 60.6547 64.6627 60.8251C64.9183 60.9956 65.0717 61.2001 65.2763 61.5069C65.5149 61.8477 67.2874 64.5747 67.2874 64.5747H65.9921C65.9921 64.5747 64.407 62.1545 64.2536 61.933C63.9298 61.4898 63.4356 60.9615 62.6345 60.9615H62.3448V64.5747H61.2029ZM62.3277 57.5869V60.0752H62.9754C63.5549 60.0752 64.8672 60.1264 64.8672 58.8651C64.8672 57.9959 64.3218 57.7573 64.0832 57.7062C63.3503 57.5528 62.3277 57.5869 62.3277 57.5869Z" fill="#A78E69"/>
<path d="M77.7021 64.5747V56.6836H79.8837C80.6847 56.6836 81.3494 56.8029 81.8267 57.1949C82.338 57.6039 82.4913 58.2005 82.4913 58.8822C82.4913 59.3424 82.372 59.7344 82.1505 60.0752C81.9289 60.4161 81.588 60.6547 81.162 60.8251C81.4176 60.9956 81.571 61.2001 81.7755 61.5069C82.0141 61.8477 83.7866 64.5747 83.7866 64.5747H82.4913C82.4913 64.5747 80.9063 62.1545 80.7529 61.933C80.4291 61.4898 79.9348 60.9615 79.1338 60.9615H78.8441V64.5747H77.7021ZM78.8441 57.5869V60.0752H79.4917C80.0712 60.0752 81.3835 60.1264 81.3835 58.8651C81.3835 57.9959 80.8381 57.7573 80.5995 57.7062C79.8496 57.5528 78.8441 57.5869 78.8441 57.5869Z" fill="#A78E69"/>
<path d="M46.3069 56.6836H50.687V57.6892H47.4317V59.973H50.6189V60.9785H47.4488V64.5747H46.3239V56.6836H46.3069Z" fill="#A78E69"/>
<path d="M55.8168 56.5654C57.0099 56.5654 58.0154 56.9574 58.7994 57.7244C59.6005 58.4913 59.9925 59.4628 59.9925 60.6218C59.9925 61.7807 59.5834 62.7522 58.7824 63.5191C57.9813 64.2861 56.9758 64.661 55.7487 64.661C54.5897 64.661 53.6182 64.2861 52.8342 63.5191C52.0502 62.7522 51.6753 61.7978 51.6753 60.6558C51.6753 59.4799 52.0673 58.5084 52.8513 57.7244C53.6182 56.9574 54.6068 56.5654 55.8168 56.5654ZM55.8509 57.6392C54.9647 57.6392 54.2318 57.9289 53.6694 58.4913C53.1069 59.0538 52.8172 59.7696 52.8172 60.6558C52.8172 61.508 53.1069 62.2068 53.6694 62.7863C54.2488 63.3487 54.9647 63.6384 55.8168 63.6384C56.6861 63.6384 57.4019 63.3487 57.9814 62.7692C58.5608 62.1898 58.8506 61.4739 58.8506 60.6218C58.8506 59.7866 58.5608 59.0879 57.9814 58.5084C57.4019 57.9289 56.7031 57.6392 55.8509 57.6392Z" fill="#A78E69"/>
<path d="M118.963 56.5654C120.156 56.5654 121.162 56.9574 121.946 57.7244C122.747 58.4913 123.139 59.4628 123.139 60.6218C123.139 61.7807 122.73 62.7522 121.929 63.5191C121.128 64.2861 120.122 64.661 118.895 64.661C117.736 64.661 116.765 64.2861 115.981 63.5191C115.197 62.7522 114.822 61.7978 114.822 60.6558C114.822 59.4799 115.214 58.5084 115.998 57.7244C116.782 56.9574 117.77 56.5654 118.963 56.5654ZM119.014 57.6392C118.128 57.6392 117.395 57.9289 116.833 58.4913C116.27 59.0538 115.981 59.7696 115.981 60.6558C115.981 61.508 116.27 62.2068 116.833 62.7863C117.412 63.3487 118.128 63.6384 118.98 63.6384C119.85 63.6384 120.565 63.3487 121.145 62.7692C121.724 62.1898 122.014 61.4739 122.014 60.6218C122.014 59.7866 121.724 59.0879 121.145 58.5084C120.565 57.9289 119.85 57.6392 119.014 57.6392Z" fill="#A78E69"/>
<path d="M187.679 56.5654C188.872 56.5654 189.878 56.9574 190.662 57.7244C191.463 58.4913 191.855 59.4628 191.855 60.6218C191.855 61.7807 191.446 62.7522 190.645 63.5191C189.844 64.2861 188.838 64.661 187.611 64.661C186.452 64.661 185.481 64.2861 184.697 63.5191C183.913 62.7522 183.538 61.7978 183.538 60.6558C183.538 59.4799 183.93 58.5084 184.714 57.7244C185.498 56.9574 186.486 56.5654 187.679 56.5654ZM187.731 57.6392C186.844 57.6392 186.111 57.9289 185.549 58.4913C184.987 59.0538 184.697 59.7696 184.697 60.6558C184.697 61.508 184.987 62.2068 185.549 62.7863C186.128 63.3487 186.844 63.6384 187.696 63.6384C188.566 63.6384 189.281 63.3487 189.861 62.7692C190.44 62.1898 190.73 61.4739 190.73 60.6218C190.73 59.7866 190.44 59.0879 189.861 58.5084C189.281 57.9289 188.566 57.6392 187.731 57.6392Z" fill="#A78E69"/>
<path d="M69.9644 56.665H76.5602V57.6706H73.8162V64.5732H72.6743V57.6706H69.9644V56.665Z" fill="#A78E69"/>
<path d="M86.5137 56.6309H87.3147L90.8598 64.5731H89.7008L88.6441 62.2381H85.2695L84.281 64.5731H83.1221L86.5137 56.6309ZM88.1669 61.2326L86.8887 58.3693L85.7127 61.2326H88.1669Z" fill="#A78E69"/>
<path d="M91.3357 64.5576V56.6836H93.9945C95.0682 56.6836 95.9204 56.837 96.551 57.1608C97.1816 57.4846 97.6758 57.9619 98.0508 58.5754C98.4257 59.206 98.5962 59.8878 98.5962 60.6206C98.5962 61.149 98.4939 61.6603 98.2894 62.1375C98.0849 62.6147 97.7951 63.0408 97.4202 63.4157C97.0282 63.7907 96.5851 64.0804 96.0738 64.2679C95.784 64.3872 95.5113 64.4554 95.2557 64.5065C95 64.5406 94.5398 64.5576 93.824 64.5576H91.3357ZM93.8752 57.6892H92.4606V63.5521H93.9092C94.4717 63.5521 94.9148 63.518 95.2216 63.4328C95.5284 63.3476 95.8011 63.2623 96.0056 63.143C96.2101 63.0237 96.3976 62.8703 96.5851 62.6999C97.1475 62.1375 97.4202 61.4217 97.4202 60.5524C97.4202 59.7003 97.1304 59.0185 96.568 58.4732C96.3635 58.2686 96.1078 58.1152 95.8351 57.9789C95.5625 57.8425 95.3068 57.7744 95.0512 57.7232C94.8125 57.7062 94.4205 57.6892 93.8752 57.6892Z" fill="#A78E69"/>
<path d="M109.027 64.5732V56.665H111.533C112.283 56.665 112.879 56.8696 113.339 57.2786C113.782 57.6876 114.004 58.233 114.004 58.9148C114.004 59.3749 113.885 59.784 113.663 60.1419C113.442 60.4998 113.118 60.7555 112.726 60.9088C112.334 61.0622 111.754 61.1475 111.004 61.1475H110.169V64.5732H109.027ZM111.345 57.6706H110.169V60.1419H111.413C111.874 60.1419 112.232 60.0396 112.47 59.8181C112.726 59.5965 112.845 59.2897 112.845 58.8807C112.845 58.0796 112.351 57.6706 111.345 57.6706Z" fill="#A78E69"/>
<path d="M124.45 56.7197H125.575V63.5712H129.137V64.5938H124.45V56.7197Z" fill="#A78E69"/>
<path d="M130.295 56.6836H131.42V64.5747H130.295V56.6836Z" fill="#A78E69"/>
<path d="M139.824 62.7357V63.9798C138.989 64.44 138.034 64.6616 136.961 64.6616C136.074 64.6616 135.324 64.4911 134.711 64.1332C134.097 63.7753 133.603 63.2981 133.245 62.6675C132.887 62.0539 132.717 61.3722 132.717 60.6564C132.717 59.5145 133.126 58.543 133.944 57.759C134.762 56.975 135.768 56.583 136.978 56.583C137.813 56.583 138.733 56.8046 139.739 57.2307V58.4407C138.818 57.9124 137.915 57.6567 137.029 57.6567C136.125 57.6567 135.376 57.9465 134.779 58.5089C134.183 59.0713 133.876 59.7872 133.876 60.6564C133.876 61.5256 134.165 62.2414 134.762 62.7868C135.341 63.3492 136.108 63.6219 137.012 63.6219C137.983 63.6219 138.921 63.3322 139.824 62.7357Z" fill="#A78E69"/>
<path d="M145.69 56.6836H147.053L144.139 60.3991V64.5747H142.997V60.3991L140.083 56.6836H141.446L143.559 59.4105L145.69 56.6836Z" fill="#A78E69"/>
<path d="M150.648 64.5576V56.6836H153.307C154.38 56.6836 155.233 56.837 155.863 57.1608C156.494 57.4846 156.988 57.9619 157.363 58.5754C157.738 59.189 157.908 59.8878 157.908 60.6206C157.908 61.149 157.806 61.6603 157.602 62.1375C157.397 62.6147 157.107 63.0408 156.732 63.4157C156.34 63.7907 155.897 64.0804 155.386 64.2679C155.096 64.3872 154.824 64.4554 154.568 64.5065C154.312 64.5406 153.852 64.5576 153.136 64.5576H150.648ZM153.187 57.6892H151.773V63.5521H153.221C153.784 63.5521 154.227 63.518 154.534 63.4328C154.841 63.3476 155.113 63.2623 155.318 63.143C155.522 63.0237 155.71 62.8703 155.897 62.6999C156.46 62.1375 156.732 61.4217 156.732 60.5524C156.732 59.7003 156.443 59.0185 155.88 58.4732C155.676 58.2686 155.42 58.1152 155.147 57.9789C154.875 57.8425 154.619 57.7744 154.363 57.7232C154.108 57.6721 153.733 57.6892 153.187 57.6892Z" fill="#A78E69"/>
<path d="M170.435 56.6836H171.594L168.185 64.6088H167.929L164.453 56.6836H165.612L168.032 62.2227L170.435 56.6836Z" fill="#A78E69"/>
<path d="M178.599 56.6836H179.724V63.5521H183.286V64.5747H178.599V56.6836Z" fill="#A78E69"/>
<path d="M193.136 64.5732V56.665H195.641C196.391 56.665 196.988 56.8696 197.448 57.2786C197.891 57.6876 198.112 58.233 198.112 58.9148C198.112 59.3749 197.993 59.784 197.772 60.1419C197.55 60.4998 197.226 60.7555 196.834 60.9088C196.442 61.0622 195.863 61.1475 195.113 61.1475H194.278V64.5732H193.136ZM195.437 57.6706H194.261V60.1419H195.505C195.965 60.1419 196.323 60.0396 196.561 59.8181C196.817 59.5965 196.936 59.2897 196.936 58.8807C196.936 58.0796 196.442 57.6706 195.437 57.6706Z" fill="#A78E69"/>
<path d="M205.884 56.6836H206.975V64.5747H205.816V58.4391L203.328 61.4898H203.106L200.584 58.4391V64.5747H199.425V56.6836H200.516L203.208 59.9218L205.884 56.6836Z" fill="#A78E69"/>
<defs>
<linearGradient id="paint0_linear" x1="114.887" y1="42.1101" x2="114.887" y2="1.40356" gradientUnits="userSpaceOnUse">
<stop stop-color="#1498E6"/>
<stop offset="1" stop-color="#1C5594"/>
</linearGradient>
<linearGradient id="paint1_linear" x1="133.327" y1="42.1108" x2="133.327" y2="16.1734" gradientUnits="userSpaceOnUse">
<stop stop-color="#1498E6"/>
<stop offset="1" stop-color="#1C5594"/>
</linearGradient>
<linearGradient id="paint2_linear" x1="154.199" y1="42.8432" x2="154.199" y2="16.1734" gradientUnits="userSpaceOnUse">
<stop stop-color="#1498E6"/>
<stop offset="1" stop-color="#1C5594"/>
</linearGradient>
<linearGradient id="paint3_linear" x1="217.828" y1="42.8432" x2="217.828" y2="16.1734" gradientUnits="userSpaceOnUse">
<stop stop-color="#1498E6"/>
<stop offset="1" stop-color="#1C5594"/>
</linearGradient>
<linearGradient id="paint4_linear" x1="186.299" y1="42.844" x2="186.299" y2="3.75686" gradientUnits="userSpaceOnUse">
<stop stop-color="#1498E6"/>
<stop offset="1" stop-color="#1C5594"/>
</linearGradient>
<linearGradient id="paint5_linear" x1="34.3358" y1="31.1472" x2="34.3358" y2="41.8079" gradientUnits="userSpaceOnUse">
<stop stop-color="#1B5999"/>
<stop offset="1" stop-color="#1498E6"/>
</linearGradient>
<linearGradient id="paint6_linear" x1="92.1467" y1="10.2432" x2="90.4191" y2="44.7941" gradientUnits="userSpaceOnUse">
<stop offset="0.00128141" stop-color="#9F8564"/>
<stop offset="1" stop-color="#E6C69C"/>
</linearGradient>
<linearGradient id="paint7_linear" x1="61.9877" y1="8.73461" x2="60.2602" y2="43.2855" gradientUnits="userSpaceOnUse">
<stop offset="0.00128141" stop-color="#9F8564"/>
<stop offset="1" stop-color="#E6C69C"/>
</linearGradient>
<linearGradient id="paint8_linear" x1="21.9129" y1="6.72898" x2="20.1854" y2="41.2799" gradientUnits="userSpaceOnUse">
<stop offset="0.00128141" stop-color="#9F8564"/>
<stop offset="1" stop-color="#E6C69C"/>
</linearGradient>
<linearGradient id="paint9_linear" x1="21.1592" y1="6.09381" x2="21.1592" y2="36.0186" gradientUnits="userSpaceOnUse">
<stop stop-color="#1C5594"/>
<stop offset="1" stop-color="#1498E6"/>
</linearGradient>
</defs>
</svg>
