<svg width="30" height="22" viewBox="0 0 30 22" fill="none" xmlns="http://www.w3.org/2000/svg">
<path d="M16.5795 21.0296V17.0799C16.5795 16.5439 17.1138 16.1099 17.7725 16.1099C20.1232 16.1099 21.402 14.1498 21.5795 10.2806H17.7725C17.1139 10.2806 16.5795 9.84597 16.5795 9.31065V0.9706C16.5795 0.434881 17.1138 0.000813756 17.7725 0.000813756H27.9223C28.5809 0.000813756 29.1154 0.435356 29.1154 0.9706V9.31072C29.1154 11.1653 28.8851 12.8672 28.4331 14.3703C27.9687 15.9111 27.2558 17.2582 26.3147 18.3745C25.3469 19.5217 24.1351 20.4219 22.7153 21.0489C21.2847 21.6798 19.6217 22 17.772 22C17.1139 21.9996 16.5795 21.5651 16.5795 21.0296ZM1.1928 16.1095C0.534136 16.1095 0 16.5439 0 17.0791V21.0297C0 21.5651 0.534136 21.9993 1.1928 21.9993C3.04159 21.9993 4.70539 21.679 6.13506 21.0481C7.55564 20.4213 8.76721 19.5218 9.73497 18.3738C10.6766 17.2575 11.3894 15.9103 11.8538 14.3687C12.3061 12.8657 12.5359 11.1637 12.5359 9.30991V0.969786C12.5359 0.434068 12.0013 0 11.3429 0H1.1928C0.534136 0 0 0.434475 0 0.969786V9.30991C0 9.84556 0.534136 10.2799 1.1928 10.2799H4.94626C4.77094 14.1494 3.51059 16.1095 1.1928 16.1095Z" fill="#553DB4"/>
</svg>
