<svg width="41" height="40" viewBox="0 0 41 40" fill="none" xmlns="http://www.w3.org/2000/svg">
<path d="M22.9358 3.53499C21.9477 1.48834 18.9836 1.48834 17.9956 3.53499L14.5374 10.5218C14.0434 11.5099 13.126 12.145 12.0673 12.3567L4.37476 13.4859C2.11639 13.8388 1.19893 16.5912 2.82213 18.2144L8.39749 23.6486C9.1738 24.4249 9.52667 25.4835 9.31495 26.6127L7.97404 34.3053C7.62117 36.5637 9.95012 38.2574 11.9968 37.1988L18.913 33.5996C19.9011 33.1055 21.0302 33.1055 22.0183 33.5996L28.9345 37.1988C30.9812 38.2574 33.3101 36.5637 32.9573 34.3053L31.6164 26.6127C31.4046 25.5541 31.7575 24.4249 32.6044 23.6486L38.1798 18.2144C39.803 16.5912 38.8855 13.8388 36.6271 13.4859L28.9345 12.3567C27.8759 12.2156 26.8879 11.5099 26.4645 10.5218L25.6881 8.96918" stroke="#FFAD00" stroke-width="3" stroke-miterlimit="10" stroke-linecap="round" stroke-linejoin="round"/>
</svg>
