<svg width="84" height="18" viewBox="0 0 84 18" fill="none" xmlns="http://www.w3.org/2000/svg">
<path d="M28.5357 14V4.298H34.4577V5.46H29.8937V8.344H33.9537V9.478H29.8937V12.838H34.8077V14H28.5357ZM36.3752 9.142C36.3752 8.31133 36.4966 7.57867 36.7392 6.944C36.9912 6.30933 37.3272 5.782 37.7472 5.362C38.1766 4.93267 38.6712 4.61067 39.2312 4.396C39.8006 4.18133 40.4026 4.074 41.0372 4.074C41.6626 4.074 42.2506 4.18133 42.8012 4.396C43.3612 4.61067 43.8512 4.93267 44.2712 5.362C44.6912 5.782 45.0226 6.30933 45.2652 6.944C45.5172 7.57867 45.6432 8.31133 45.6432 9.142C45.6432 9.97267 45.5172 10.7053 45.2652 11.34C45.0226 11.9747 44.6912 12.5067 44.2712 12.936C43.8512 13.356 43.3612 13.6733 42.8012 13.888C42.2506 14.1027 41.6626 14.21 41.0372 14.21C40.4026 14.21 39.8006 14.1027 39.2312 13.888C38.6712 13.6733 38.1766 13.356 37.7472 12.936C37.3272 12.5067 36.9912 11.9747 36.7392 11.34C36.4966 10.7053 36.3752 9.97267 36.3752 9.142ZM37.8032 9.142C37.8032 9.73 37.8779 10.2667 38.0272 10.752C38.1766 11.228 38.3866 11.634 38.6572 11.97C38.9372 12.306 39.2732 12.5673 39.6652 12.754C40.0666 12.9313 40.5146 13.02 41.0092 13.02C41.5039 13.02 41.9472 12.9313 42.3392 12.754C42.7312 12.5673 43.0626 12.306 43.3332 11.97C43.6132 11.634 43.8279 11.228 43.9772 10.752C44.1266 10.2667 44.2012 9.73 44.2012 9.142C44.2012 8.554 44.1266 8.022 43.9772 7.546C43.8279 7.06067 43.6132 6.65 43.3332 6.314C43.0626 5.978 42.7312 5.72133 42.3392 5.544C41.9472 5.35733 41.5039 5.264 41.0092 5.264C40.5146 5.264 40.0666 5.35733 39.6652 5.544C39.2732 5.72133 38.9372 5.978 38.6572 6.314C38.3866 6.65 38.1766 7.06067 38.0272 7.546C37.8779 8.022 37.8032 8.554 37.8032 9.142ZM54.2486 5.376C54.034 5.61867 53.782 5.91267 53.4926 6.258C53.2126 6.594 52.914 6.972 52.5966 7.392C52.2793 7.80267 51.9526 8.24133 51.6166 8.708C51.2806 9.16533 50.9493 9.632 50.6226 10.108C50.3053 10.5747 50.002 11.0413 49.7126 11.508C49.4233 11.9747 49.162 12.418 48.9286 12.838H54.3886V14H47.3466V13.09C47.5426 12.7167 47.7713 12.306 48.0326 11.858C48.3033 11.41 48.588 10.9527 48.8866 10.486C49.1946 10.0193 49.512 9.548 49.8386 9.072C50.1653 8.596 50.4873 8.13867 50.8046 7.7C51.1313 7.26133 51.444 6.85067 51.7426 6.468C52.0506 6.08533 52.3306 5.74933 52.5826 5.46H47.5986V4.298H54.2486V5.376ZM55.0701 9.198H58.5281V10.416H55.0701V9.198ZM63.3416 14.084C63.1456 14.084 62.931 14.0793 62.6976 14.07C62.4736 14.0607 62.245 14.0467 62.0116 14.028C61.7876 14.0093 61.5636 13.986 61.3396 13.958C61.1156 13.93 60.9103 13.8927 60.7236 13.846V4.438C60.9103 4.39133 61.1156 4.354 61.3396 4.326C61.5636 4.298 61.7876 4.27467 62.0116 4.256C62.245 4.23733 62.4736 4.22333 62.6976 4.214C62.9216 4.20467 63.1316 4.2 63.3276 4.2C63.8876 4.2 64.4103 4.242 64.8956 4.326C65.3903 4.41 65.815 4.55467 66.1696 4.76C66.5336 4.956 66.8183 5.21733 67.0236 5.544C67.229 5.87067 67.3316 6.272 67.3316 6.748C67.3316 7.28 67.2056 7.71867 66.9536 8.064C66.7016 8.4 66.3656 8.652 65.9456 8.82C66.515 8.988 66.9677 9.254 67.3037 9.618C67.6396 9.982 67.8076 10.4953 67.8076 11.158C67.8076 12.1287 67.4483 12.8613 66.7297 13.356C66.0203 13.8413 64.891 14.084 63.3416 14.084ZM62.0676 9.478V12.894C62.1703 12.9033 62.2916 12.9127 62.4316 12.922C62.553 12.9313 62.693 12.9407 62.8516 12.95C63.0196 12.95 63.211 12.95 63.4256 12.95C63.827 12.95 64.205 12.9267 64.5596 12.88C64.9236 12.824 65.241 12.7307 65.5116 12.6C65.7823 12.4693 65.997 12.2873 66.1557 12.054C66.3236 11.8207 66.4076 11.5267 66.4076 11.172C66.4076 10.8547 66.347 10.5887 66.2256 10.374C66.1043 10.15 65.927 9.97267 65.6936 9.842C65.4696 9.71133 65.199 9.618 64.8816 9.562C64.5643 9.506 64.2096 9.478 63.8176 9.478H62.0676ZM62.0676 8.386H63.4956C63.8316 8.386 64.149 8.36267 64.4476 8.316C64.7463 8.26933 65.003 8.18533 65.2176 8.064C65.4416 7.94267 65.6143 7.784 65.7357 7.588C65.8663 7.392 65.9316 7.14467 65.9316 6.846C65.9316 6.566 65.8663 6.33267 65.7357 6.146C65.605 5.95 65.423 5.796 65.1896 5.684C64.9656 5.56267 64.6996 5.474 64.3916 5.418C64.0836 5.362 63.757 5.334 63.4116 5.334C63.0663 5.334 62.7956 5.33867 62.5996 5.348C62.4036 5.35733 62.2263 5.37133 62.0676 5.39V8.386ZM76.6917 10.36C76.6917 10.9387 76.6077 11.4613 76.4397 11.928C76.2717 12.3947 76.0337 12.796 75.7257 13.132C75.4271 13.468 75.0677 13.7293 74.6477 13.916C74.2277 14.0933 73.7704 14.182 73.2757 14.182C72.7811 14.182 72.3237 14.0933 71.9037 13.916C71.4837 13.7293 71.1197 13.468 70.8117 13.132C70.5131 12.796 70.2797 12.3947 70.1117 11.928C69.9437 11.4613 69.8597 10.9387 69.8597 10.36C69.8597 9.79067 69.9437 9.27267 70.1117 8.806C70.2797 8.33 70.5131 7.924 70.8117 7.588C71.1197 7.252 71.4837 6.99533 71.9037 6.818C72.3237 6.63133 72.7811 6.538 73.2757 6.538C73.7704 6.538 74.2277 6.63133 74.6477 6.818C75.0677 6.99533 75.4271 7.252 75.7257 7.588C76.0337 7.924 76.2717 8.33 76.4397 8.806C76.6077 9.27267 76.6917 9.79067 76.6917 10.36ZM75.3337 10.36C75.3337 9.53867 75.1471 8.89 74.7737 8.414C74.4097 7.92867 73.9104 7.686 73.2757 7.686C72.6411 7.686 72.1371 7.92867 71.7637 8.414C71.3997 8.89 71.2177 9.53867 71.2177 10.36C71.2177 11.1813 71.3997 11.8347 71.7637 12.32C72.1371 12.796 72.6411 13.034 73.2757 13.034C73.9104 13.034 74.4097 12.796 74.7737 12.32C75.1471 11.8347 75.3337 11.1813 75.3337 10.36ZM80.3716 6.72H83.1296V7.812H80.3716V11.172C80.3716 11.536 80.3996 11.8393 80.4556 12.082C80.5116 12.3153 80.5956 12.502 80.7076 12.642C80.8196 12.7727 80.9596 12.866 81.1276 12.922C81.2956 12.978 81.4916 13.006 81.7156 13.006C82.1076 13.006 82.4202 12.964 82.6536 12.88C82.8962 12.7867 83.0642 12.7213 83.1576 12.684L83.4096 13.762C83.2789 13.8273 83.0502 13.9067 82.7236 14C82.3969 14.1027 82.0236 14.154 81.6036 14.154C81.1089 14.154 80.6982 14.0933 80.3716 13.972C80.0542 13.8413 79.7976 13.65 79.6016 13.398C79.4056 13.146 79.2656 12.838 79.1816 12.474C79.1069 12.1007 79.0696 11.6713 79.0696 11.186V4.69L80.3716 4.466V6.72Z" fill="#039BE5"/>
<path d="M6.27729 11.5679L6.01262 15.1975C6.3913 15.1975 6.5553 15.0389 6.75197 14.8484L8.52735 13.1942L12.2061 15.8208C12.8808 16.1874 13.3561 15.9943 13.5381 15.2157L15.9529 4.18391L15.9535 4.18326C16.1675 3.21086 15.5928 2.83061 14.9355 3.06916L0.741826 8.36729C-0.226863 8.73388 -0.212196 9.26038 0.577156 9.49893L4.20591 10.5994L12.6348 5.45725C13.0315 5.20115 13.3921 5.34285 13.0955 5.59895L6.27729 11.5679Z" fill="#039BE5"/>
</svg>
