<svg width="19" height="22" viewBox="0 0 19 22" fill="none" xmlns="http://www.w3.org/2000/svg">
<path d="M17.3576 9.18182C17.3576 15.5455 9.17882 21 9.17882 21C9.17882 21 1 15.5455 1 9.18182C1 7.01186 1.86169 4.93079 3.39552 3.3964C4.92935 1.86201 7.00966 1 9.17882 1C11.348 1 13.4283 1.86201 14.9621 3.3964C16.4959 4.93079 17.3576 7.01186 17.3576 9.18182Z" stroke="#7C6AC4" stroke-width="2" stroke-linecap="round" stroke-linejoin="round"/>
<path d="M9.1794 11.9091C10.6851 11.9091 11.9057 10.6881 11.9057 9.18186C11.9057 7.67563 10.6851 6.45459 9.1794 6.45459C7.67372 6.45459 6.45312 7.67563 6.45312 9.18186C6.45312 10.6881 7.67372 11.9091 9.1794 11.9091Z" stroke="#7C6AC4" stroke-width="2" stroke-linecap="round" stroke-linejoin="round"/>
</svg>
