<svg width="41" height="37" viewBox="0 0 41 37" fill="none" xmlns="http://www.w3.org/2000/svg">
<path d="M27.9738 22.8627C27.5591 22.7936 27.0754 22.7936 26.6607 22.7936H14.0139C8.4161 22.7936 3.71673 26.4563 2.12724 31.5012C1.57437 33.3672 2.88743 35.2331 4.82246 35.2331H35.8521C37.7872 35.2331 39.1002 33.3672 38.5474 31.5012C37.8563 29.2898 36.6123 26.7328 34.1935 25.2815" stroke="#FFAD00" stroke-width="3" stroke-miterlimit="10" stroke-linecap="round" stroke-linejoin="round"/>
<path d="M20.5102 19.2002H20.1646C16.0181 19.2002 12.6318 15.8139 12.6318 11.6674V9.525C12.6318 5.37849 16.0181 1.99219 20.1646 1.99219H20.5102C24.6567 1.99219 28.043 5.37849 28.043 9.525V11.6674C27.9739 15.8139 24.5876 19.2002 20.5102 19.2002Z" stroke="#FFAD00" stroke-width="3" stroke-miterlimit="10" stroke-linecap="round" stroke-linejoin="round"/>
<path d="M16 24L20.545 29L25 24" stroke="#FFAD00" stroke-width="3" stroke-miterlimit="10" stroke-linecap="round" stroke-linejoin="round"/>
</svg>
