<svg width="45" height="45" viewBox="0 0 45 45" fill="none" xmlns="http://www.w3.org/2000/svg">
<rect width="45" height="45" rx="11.0769" fill="#F3F1FA"/>
<path d="M33.5406 16.42C33.4218 15.9454 33.1799 15.5106 32.8392 15.1594C32.4986 14.8082 32.0713 14.5532 31.6006 14.42C29.8806 14 23.0006 14 23.0006 14C23.0006 14 16.1206 14 14.4006 14.46C13.9298 14.5932 13.5025 14.8482 13.1619 15.1994C12.8213 15.5506 12.5794 15.9854 12.4606 16.46C12.1458 18.2056 11.9918 19.9763 12.0006 21.75C11.9894 23.537 12.1433 25.3213 12.4606 27.08C12.5915 27.5398 12.8389 27.9581 13.1787 28.2945C13.5186 28.6308 13.9394 28.8738 14.4006 29C16.1206 29.46 23.0006 29.46 23.0006 29.46C23.0006 29.46 29.8806 29.46 31.6006 29C32.0713 28.8668 32.4986 28.6118 32.8392 28.2606C33.1799 27.9094 33.4218 27.4746 33.5406 27C33.8529 25.2676 34.0069 23.5103 34.0006 21.75C34.0118 19.963 33.8578 18.1787 33.5406 16.42V16.42Z" stroke="#553DB4" stroke-width="2" stroke-linecap="round" stroke-linejoin="round"/>
<path d="M20.75 25.02L26.5 21.75L20.75 18.48V25.02Z" stroke="#553DB4" stroke-width="2" stroke-linecap="round" stroke-linejoin="round"/>
</svg>
