<svg width="330" height="359" viewBox="0 0 330 359" fill="none" xmlns="http://www.w3.org/2000/svg">
<g clip-path="url(#clip0)">
<path d="M134.154 143.68V68.0429L152.025 57.7788V133.293L134.154 143.68Z" fill="#553DB4"/>
<path d="M134.154 68.0429L116.283 57.7788V133.293L134.154 143.68V68.0429Z" fill="#A99DD8"/>
<path d="M152.025 57.7788L134.154 47.5146L116.283 57.7788L134.154 68.0429L152.025 57.7788Z" fill="#E2DCFF"/>
<path d="M98.4121 143.68V112.765L116.283 102.379V133.293L98.4121 143.68Z" fill="#553DB4"/>
<path d="M98.4119 112.765L80.541 102.379V133.293L98.4119 143.68V112.765Z" fill="#FFAD00"/>
<path d="M116.283 102.379L98.4119 92.1147L80.541 102.379L98.4119 112.765L116.283 102.379Z" fill="#FFD988"/>
<path d="M152.025 153.944V111.055L169.896 100.668V143.558L152.025 153.944Z" fill="#553DB4"/>
<path d="M152.025 111.055L134.154 100.668V143.558L152.025 153.944V111.055Z" fill="#553DB4"/>
<path d="M169.896 100.668L152.025 90.4041L134.154 100.668L152.025 111.055L169.896 100.668Z" fill="#E2DCFF"/>
<path d="M152.025 147.101L134.154 136.837V143.68L152.025 153.944V147.101Z" fill="#95D359"/>
<path d="M116.283 153.944V98.9575L134.154 88.6934V143.68L116.283 153.944Z" fill="#C13D1A"/>
<path d="M116.283 98.9575L98.4121 88.6934V143.68L116.283 153.944V98.9575Z" fill="#DB5126"/>
<path d="M134.154 88.6933L116.283 78.4292L98.4121 88.6933L116.283 98.9575L134.154 88.6933Z" fill="#EF602E"/>
<path d="M116.283 153.944V98.9575L134.154 88.6934V143.68L116.283 153.944Z" fill="#553DB4"/>
<path d="M116.283 98.9575L98.4121 88.6934V143.68L116.283 153.944V98.9575Z" fill="#A99DD8"/>
<path d="M134.154 88.6933L116.283 78.4292L98.4121 88.6933L116.283 98.9575L134.154 88.6933Z" fill="#E2DCFF"/>
<path d="M134.154 164.208V133.293L152.025 123.029V153.944L134.154 164.208Z" fill="#EF8F00"/>
<path d="M134.154 133.293L116.283 123.029V153.944L134.154 164.208V133.293Z" fill="#FFAD00"/>
<path d="M152.025 123.029L134.154 112.765L116.283 123.029L134.154 133.293L152.025 123.029Z" fill="#FFD988"/>
<path d="M322.164 142.231L184.827 63.1732C183.114 62.1957 181.4 61.9513 180.176 62.5623L179.931 62.6845L175.402 64.7617L180.298 67.2056C180.298 67.3278 180.298 67.3278 180.298 67.45V179.989C180.298 185.61 183.848 192.208 188.132 194.652L321.675 271.633L322.409 277.865L327.305 275.543C328.896 274.565 329.876 272.488 329.876 269.433V156.894C329.876 151.274 326.448 144.675 322.164 142.231Z" fill="#553DB4"/>
<path d="M322.164 142.231L184.827 63.1732C183.114 62.1957 181.4 61.9513 180.176 62.5623L179.931 62.6845L175.402 64.7617L180.298 67.2056C180.298 67.3278 180.298 67.3278 180.298 67.45V141.62L242.724 190.864L327.55 148.219C326.204 145.653 324.245 143.453 322.164 142.231Z" fill="#553DB4"/>
<path d="M324.49 144.064L311.025 149.685L321.185 157.505L329.631 153.962C328.896 150.174 326.938 146.508 324.49 144.064Z" fill="#274F89"/>
<path d="M317.636 277.254L180.422 198.195C176.138 195.752 172.588 189.153 172.588 183.532V70.9935C172.588 65.3727 176.015 62.8067 180.422 65.2505L317.636 144.309C321.92 146.753 325.47 153.351 325.47 158.972V271.511C325.47 277.254 321.92 279.82 317.636 277.254Z" fill="#E2DCFF"/>
<path d="M313.107 268.944L184.951 195.141C181.034 192.819 177.852 186.831 177.852 181.699V78.6916C177.852 73.5595 181.034 71.2379 184.951 73.4373L313.107 147.241C317.024 149.563 320.207 155.55 320.207 160.682V263.69C320.207 268.822 317.024 271.266 313.107 268.944Z" fill="white"/>
<path d="M313.107 268.944L184.951 195.141C181.034 192.819 177.852 186.831 177.852 181.699V78.6916C177.852 73.5595 181.034 71.2379 184.951 73.4373L313.107 147.241C317.024 149.563 320.207 155.55 320.207 160.682V263.69C320.207 268.822 317.024 271.266 313.107 268.944Z" fill="white"/>
<path d="M319.717 280.797L301.234 278.353L182.136 209.681C178.341 207.482 171.609 207.726 167.202 210.292L82.7439 258.925L71.6052 257.458V263.812C71.4828 265.279 72.3396 266.623 74.1757 267.723L209.187 345.559C212.981 347.758 219.714 347.514 224.12 344.948L316.045 291.917C318.493 290.45 319.717 288.617 319.717 286.907V280.797Z" fill="#553DB4"/>
<path d="M230.241 237.419L221.795 232.531H128.768L82.867 258.925L71.7283 257.458V263.812C71.6059 265.279 72.4627 266.623 74.2987 267.723L209.31 345.559C211.268 346.781 214.084 347.147 217.021 347.025L230.241 237.419Z" fill="#553DB4"/>
<path d="M76.6244 258.192L71.7283 257.581V263.935C71.6059 265.401 72.4627 266.745 74.2987 267.845L76.6244 269.189V258.192Z" fill="#A99DD8"/>
<path d="M209.188 339.205L74.1765 261.369C70.382 259.169 70.8716 255.381 75.2782 252.815L167.203 199.784C171.61 197.218 178.342 196.973 182.136 199.173L317.148 277.009C320.942 279.209 320.453 282.997 316.046 285.563L224.121 338.594C219.714 341.16 213.105 341.404 209.188 339.205Z" fill="#E2DCFF"/>
<path d="M316.045 283.363L224.12 336.394C219.713 338.96 212.981 339.205 209.187 337.005L74.1755 259.047C72.9514 258.314 72.0946 257.458 71.8498 256.481C71.2378 258.314 71.9722 260.147 74.1755 261.369L209.187 339.205C212.981 341.404 219.713 341.16 224.12 338.594L316.045 285.563C318.983 283.852 320.207 281.53 319.472 279.575C319.105 280.919 317.881 282.263 316.045 283.363Z" fill="white"/>
<path d="M131.583 235.586L125.463 232.043C124.973 231.798 124.973 231.309 125.585 230.943L132.807 226.788C133.419 226.422 134.276 226.422 134.765 226.666L140.885 230.21C141.375 230.454 141.375 230.943 140.763 231.309L133.541 235.464C132.929 235.831 132.072 235.953 131.583 235.586Z" fill="#553DB4"/>
<path d="M141.13 241.085L135.009 237.541C134.52 237.297 134.52 236.808 135.132 236.441L142.354 232.287C142.966 231.92 143.822 231.92 144.312 232.165L150.432 235.708C150.922 235.953 150.922 236.441 150.31 236.808L143.088 240.963C142.476 241.329 141.619 241.329 141.13 241.085Z" fill="#553DB4"/>
<path d="M150.555 246.461L144.435 242.918C143.946 242.673 143.946 242.184 144.558 241.818L151.779 237.663C152.391 237.297 153.248 237.297 153.738 237.541L159.858 241.085C160.348 241.329 160.348 241.818 159.736 242.184L152.514 246.339C151.902 246.706 151.045 246.828 150.555 246.461Z" fill="#553DB4"/>
<path d="M163.53 242.062L157.41 238.519C156.92 238.274 156.92 237.786 157.532 237.419L163.53 233.875C164.142 233.509 164.999 233.509 165.488 233.753L171.609 237.297C172.098 237.541 172.098 238.03 171.486 238.397L165.488 241.94C164.876 242.307 164.02 242.307 163.53 242.062Z" fill="#553DB4"/>
<path d="M172.956 247.439L166.836 243.895C166.346 243.651 166.346 243.162 166.958 242.795L172.956 239.252C173.568 238.885 174.425 238.885 174.914 239.13L181.034 242.673C181.524 242.918 181.524 243.406 180.912 243.773L174.914 247.317C174.302 247.683 173.445 247.805 172.956 247.439Z" fill="#553DB4"/>
<path d="M182.38 252.937L176.259 249.394C175.77 249.149 175.77 248.661 176.382 248.294L182.38 244.751C182.992 244.384 183.848 244.384 184.338 244.628L190.458 248.172C190.948 248.416 190.948 248.905 190.336 249.272L184.338 252.815C183.726 253.182 182.869 253.182 182.38 252.937Z" fill="#553DB4"/>
<path d="M191.805 258.314L185.685 254.77C185.196 254.526 185.196 254.037 185.808 253.671L191.805 250.127C192.417 249.76 193.274 249.76 193.764 250.005L199.884 253.548C200.374 253.793 200.374 254.281 199.762 254.648L193.764 258.192C193.152 258.558 192.295 258.68 191.805 258.314Z" fill="#553DB4"/>
<path d="M201.231 263.812L195.111 260.269C194.621 260.024 194.621 259.536 195.233 259.169L201.231 255.626C201.843 255.259 202.7 255.259 203.19 255.503L209.31 259.047C209.799 259.291 209.799 259.78 209.187 260.147L203.19 263.69C202.7 264.057 201.843 264.057 201.231 263.812Z" fill="#553DB4"/>
<path d="M210.778 269.189L204.658 265.645C204.168 265.401 204.168 264.912 204.78 264.546L210.778 261.002C211.39 260.635 212.247 260.635 212.737 260.88L218.857 264.423C219.346 264.668 219.346 265.157 218.734 265.523L212.737 269.067C212.125 269.433 211.268 269.555 210.778 269.189Z" fill="#553DB4"/>
<path d="M220.204 274.688L214.084 271.144C213.594 270.9 213.594 270.411 214.206 270.044L220.204 266.501C220.816 266.134 221.673 266.134 222.162 266.378L228.282 269.922C228.772 270.166 228.772 270.655 228.16 271.022L222.162 274.565C221.55 274.932 220.693 274.932 220.204 274.688Z" fill="#553DB4"/>
<path d="M229.628 280.064L223.507 276.52C223.018 276.276 223.018 275.787 223.63 275.421L229.628 271.877C230.24 271.511 231.096 271.511 231.586 271.755L237.706 275.298C238.196 275.543 238.196 276.032 237.584 276.398L231.586 279.942C230.974 280.308 230.117 280.431 229.628 280.064Z" fill="#553DB4"/>
<path d="M239.053 285.563L232.933 282.019C232.444 281.775 232.444 281.286 233.056 280.919L239.053 277.376C239.665 277.009 240.522 277.009 241.012 277.254L247.132 280.797C247.622 281.042 247.622 281.53 247.01 281.897L241.012 285.44C240.4 285.807 239.543 285.807 239.053 285.563Z" fill="#553DB4"/>
<path d="M248.477 290.939L242.357 287.396C241.867 287.151 241.867 286.662 242.48 286.296L248.477 282.752C249.089 282.386 249.946 282.386 250.436 282.63L256.556 286.174C257.046 286.418 257.046 286.907 256.434 287.273L250.436 290.817C249.824 291.184 248.967 291.306 248.477 290.939Z" fill="#553DB4"/>
<path d="M177.485 239.496L171.365 235.953C170.875 235.708 170.875 235.219 171.487 234.853L177.485 231.309C178.097 230.943 178.954 230.943 179.444 231.187L185.564 234.731C186.053 234.975 186.053 235.464 185.441 235.83L179.444 239.374C178.832 239.741 177.975 239.741 177.485 239.496Z" fill="#553DB4"/>
<path d="M167.936 233.875L161.816 230.332C161.326 230.087 161.326 229.599 161.938 229.232L167.936 225.689C168.548 225.322 169.405 225.322 169.895 225.566L176.015 229.11C176.505 229.354 176.505 229.843 175.892 230.21L169.895 233.753C169.283 234.12 168.426 234.242 167.936 233.875Z" fill="#553DB4"/>
<path d="M158.267 228.377L145.17 220.801C144.68 220.557 144.68 220.068 145.292 219.701L151.29 216.158C151.902 215.791 152.759 215.791 153.248 216.035L166.345 223.611C166.835 223.856 166.835 224.344 166.223 224.711L160.225 228.255C159.613 228.621 158.756 228.743 158.267 228.377Z" fill="#553DB4"/>
<path d="M164.998 221.656L154.349 215.547C153.86 215.302 153.86 214.813 154.472 214.447L160.469 210.903C161.081 210.537 161.938 210.537 162.428 210.781L173.077 216.891C173.567 217.135 173.567 217.624 172.955 217.99L166.957 221.534C166.345 221.901 165.488 222.023 164.998 221.656Z" fill="#553DB4"/>
<path d="M186.909 244.873L180.789 241.329C180.299 241.085 180.299 240.596 180.911 240.229L186.909 236.686C187.521 236.319 188.378 236.319 188.867 236.564L194.988 240.107C195.477 240.352 195.477 240.84 194.865 241.207L188.867 244.75C188.255 245.117 187.399 245.117 186.909 244.873Z" fill="#553DB4"/>
<path d="M196.335 250.371L190.215 246.828C189.725 246.583 189.725 246.095 190.337 245.728L196.335 242.184C196.947 241.818 197.804 241.818 198.293 242.062L204.413 245.606C204.903 245.85 204.903 246.339 204.291 246.706L198.293 250.249C197.681 250.616 196.824 250.616 196.335 250.371Z" fill="#553DB4"/>
<path d="M205.759 255.748L199.638 252.204C199.149 251.96 199.149 251.471 199.761 251.105L205.759 247.561C206.371 247.194 207.227 247.194 207.717 247.439L213.837 250.982C214.327 251.227 214.327 251.715 213.715 252.082L207.717 255.626C207.105 255.992 206.248 255.992 205.759 255.748Z" fill="#553DB4"/>
<path d="M215.184 261.246L209.064 257.703C208.575 257.458 208.575 256.97 209.187 256.603L215.184 253.06C215.796 252.693 216.653 252.693 217.143 252.937L223.263 256.481C223.753 256.725 223.753 257.214 223.141 257.581L217.143 261.124C216.531 261.491 215.674 261.491 215.184 261.246Z" fill="#553DB4"/>
<path d="M224.61 266.623L218.49 263.079C218 262.835 218 262.346 218.612 261.98L224.61 258.436C225.222 258.069 226.079 258.069 226.569 258.314L232.689 261.857C233.178 262.102 233.178 262.59 232.566 262.957L226.569 266.501C225.957 266.867 225.1 266.867 224.61 266.623Z" fill="#553DB4"/>
<path d="M234.034 272.121L227.914 268.578C227.424 268.334 227.424 267.845 228.036 267.478L234.034 263.935C234.646 263.568 235.503 263.568 235.992 263.812L242.113 267.356C242.602 267.6 242.602 268.089 241.99 268.456L235.992 271.999C235.38 272.366 234.524 272.366 234.034 272.121Z" fill="#553DB4"/>
<path d="M243.46 277.498L237.34 273.954C236.85 273.71 236.85 273.221 237.462 272.855L243.46 269.311C244.072 268.944 244.929 268.944 245.418 269.189L251.538 272.732C252.028 272.977 252.028 273.466 251.416 273.832L245.418 277.376C244.806 277.742 243.949 277.742 243.46 277.498Z" fill="#553DB4"/>
<path d="M252.885 282.997L246.765 279.453C246.276 279.209 246.276 278.72 246.888 278.353L252.885 274.81C253.497 274.443 254.354 274.443 254.844 274.688L260.964 278.231C261.454 278.475 261.454 278.964 260.842 279.331L254.844 282.874C254.232 283.241 253.375 283.241 252.885 282.997Z" fill="#553DB4"/>
<path d="M262.309 288.373L256.189 284.829C255.7 284.585 255.7 284.096 256.312 283.73L262.309 280.186C262.921 279.82 263.778 279.82 264.268 280.064L270.388 283.608C270.878 283.852 270.878 284.341 270.266 284.707L264.268 288.251C263.656 288.617 262.799 288.617 262.309 288.373Z" fill="#553DB4"/>
<path d="M279.08 298.026L265.738 290.328C265.248 290.084 265.248 289.595 265.86 289.228L271.858 285.685C272.47 285.318 273.327 285.318 273.817 285.563L287.159 293.261C287.648 293.505 287.648 293.994 287.036 294.36L281.038 297.904C280.426 298.271 279.57 298.393 279.08 298.026Z" fill="#553DB4"/>
<path d="M297.562 287.518L286.3 281.042C285.811 280.797 285.811 280.308 286.423 279.942L292.421 276.398C293.033 276.032 293.889 276.032 294.379 276.276L305.64 282.752C306.13 282.997 306.13 283.485 305.518 283.852L299.52 287.396C298.908 287.762 298.051 287.762 297.562 287.518Z" fill="#553DB4"/>
<path d="M203.434 243.773L197.314 240.229C196.825 239.985 196.825 239.496 197.437 239.13L203.434 235.586C204.046 235.22 204.903 235.22 205.393 235.464L211.513 239.007C212.003 239.252 212.003 239.741 211.391 240.107L205.393 243.651C204.781 244.017 203.924 244.14 203.434 243.773Z" fill="#553DB4"/>
<path d="M193.764 238.274L187.644 234.731C187.155 234.486 187.155 233.998 187.767 233.631L193.764 230.087C194.376 229.721 195.233 229.721 195.723 229.965L201.843 233.509C202.333 233.753 202.333 234.242 201.721 234.609L195.723 238.152C195.111 238.519 194.254 238.519 193.764 238.274Z" fill="#553DB4"/>
<path d="M184.094 232.653L177.974 229.11C177.485 228.866 177.485 228.377 178.097 228.01L184.094 224.467C184.706 224.1 185.563 224.1 186.053 224.344L192.173 227.888C192.663 228.132 192.663 228.621 192.051 228.988L186.053 232.531C185.441 232.898 184.584 233.02 184.094 232.653Z" fill="#553DB4"/>
<path d="M174.425 227.155L168.304 223.611C167.815 223.367 167.815 222.878 168.427 222.512L174.425 218.968C175.037 218.601 175.893 218.601 176.383 218.846L182.503 222.389C182.993 222.634 182.993 223.123 182.381 223.489L176.383 227.033C175.771 227.399 174.914 227.399 174.425 227.155Z" fill="#553DB4"/>
<path d="M212.858 249.272L206.738 245.728C206.248 245.484 206.248 244.995 206.86 244.628L212.858 241.085C213.47 240.718 214.327 240.718 214.817 240.963L220.937 244.506C221.426 244.751 221.426 245.239 220.814 245.606L214.817 249.149C214.205 249.516 213.348 249.516 212.858 249.272Z" fill="#553DB4"/>
<path d="M222.284 254.648L216.164 251.105C215.674 250.86 215.674 250.371 216.286 250.005L222.284 246.461C222.896 246.095 223.753 246.095 224.242 246.339L230.363 249.883C230.852 250.127 230.852 250.616 230.24 250.982L224.242 254.526C223.63 254.892 222.774 255.015 222.284 254.648Z" fill="#553DB4"/>
<path d="M231.71 260.147L225.59 256.603C225.1 256.359 225.1 255.87 225.712 255.503L231.71 251.96C232.322 251.593 233.179 251.593 233.668 251.838L239.788 255.381C240.278 255.626 240.278 256.114 239.666 256.481L233.668 260.025C233.056 260.391 232.199 260.391 231.71 260.147Z" fill="#553DB4"/>
<path d="M241.134 265.523L235.013 261.98C234.524 261.735 234.524 261.246 235.136 260.88L241.134 257.336C241.746 256.97 242.602 256.97 243.092 257.214L249.212 260.758C249.702 261.002 249.702 261.491 249.09 261.857L243.092 265.401C242.48 265.768 241.623 265.89 241.134 265.523Z" fill="#553DB4"/>
<path d="M250.559 271.022L244.439 267.478C243.95 267.234 243.95 266.745 244.562 266.378L250.559 262.835C251.171 262.468 252.028 262.468 252.518 262.713L258.638 266.256C259.128 266.501 259.128 266.989 258.516 267.356L252.518 270.9C251.906 271.266 251.049 271.266 250.559 271.022Z" fill="#553DB4"/>
<path d="M259.985 276.398L253.865 272.855C253.375 272.61 253.375 272.121 253.987 271.755L259.985 268.211C260.597 267.845 261.454 267.845 261.944 268.089L268.064 271.633C268.553 271.877 268.553 272.366 267.941 272.732L261.944 276.276C261.332 276.643 260.475 276.765 259.985 276.398Z" fill="#553DB4"/>
<path d="M269.409 281.897L263.289 278.353C262.799 278.109 262.799 277.62 263.411 277.254L269.409 273.71C270.021 273.343 270.878 273.343 271.367 273.588L277.488 277.131C277.977 277.376 277.977 277.865 277.365 278.231L271.367 281.775C270.755 282.141 269.899 282.141 269.409 281.897Z" fill="#553DB4"/>
<path d="M278.835 287.273L272.715 283.73C272.225 283.485 272.225 282.997 272.837 282.63L278.835 279.086C279.447 278.72 280.303 278.72 280.793 278.964L286.913 282.508C287.403 282.752 287.403 283.241 286.791 283.608L280.793 287.151C280.181 287.518 279.324 287.64 278.835 287.273Z" fill="#553DB4"/>
<path d="M288.382 292.772L282.261 289.228C281.772 288.984 281.772 288.495 282.384 288.129L288.382 284.585C288.994 284.219 289.85 284.219 290.34 284.463L296.46 288.006C296.95 288.251 296.95 288.74 296.338 289.106L290.34 292.65C289.728 293.016 288.871 293.016 288.382 292.772Z" fill="#553DB4"/>
<path d="M198.415 230.332L192.295 226.788C191.805 226.544 191.805 226.055 192.417 225.689L198.415 222.145C199.027 221.778 199.884 221.778 200.373 222.023L206.493 225.566C206.983 225.811 206.983 226.3 206.371 226.666L200.373 230.21C199.761 230.576 198.904 230.698 198.415 230.332Z" fill="#553DB4"/>
<path d="M189.112 224.955L182.992 221.412C182.502 221.167 182.502 220.679 183.114 220.312L189.112 216.769C189.724 216.402 190.581 216.402 191.071 216.646L197.191 220.19C197.68 220.434 197.68 220.923 197.068 221.29L190.948 224.833C190.458 225.2 189.602 225.2 189.112 224.955Z" fill="#553DB4"/>
<path d="M179.688 219.579L173.568 216.035C173.078 215.791 173.078 215.302 173.69 214.936L179.688 211.392C180.3 211.025 181.157 211.025 181.647 211.27L187.767 214.813C188.256 215.058 188.256 215.547 187.644 215.913L181.647 219.457C181.035 219.823 180.178 219.823 179.688 219.579Z" fill="#553DB4"/>
<path d="M170.262 214.203L164.142 210.659C163.653 210.415 163.653 209.926 164.265 209.559L170.262 206.016C170.874 205.649 171.731 205.649 172.221 205.893L178.341 209.437C178.831 209.681 178.831 210.17 178.219 210.537L172.221 214.08C171.609 214.447 170.752 214.447 170.262 214.203Z" fill="#553DB4"/>
<path d="M179.932 208.582L173.812 205.038C173.323 204.794 173.323 204.305 173.935 203.938L175.893 202.839C176.505 202.472 177.362 202.472 177.851 202.716L183.972 206.26C184.461 206.504 184.461 206.993 183.849 207.36L181.891 208.46C181.279 208.826 180.422 208.826 179.932 208.582Z" fill="#553DB4"/>
<path d="M192.173 215.669L186.052 212.125C185.563 211.881 185.563 211.392 186.175 211.025L188.133 209.926C188.745 209.559 189.602 209.559 190.092 209.804L196.212 213.347C196.702 213.592 196.702 214.08 196.09 214.447L194.131 215.547C193.519 215.913 192.662 215.913 192.173 215.669Z" fill="#553DB4"/>
<path d="M201.475 221.045L195.355 217.502C194.866 217.257 194.866 216.769 195.478 216.402L197.436 215.302C198.048 214.936 198.905 214.936 199.394 215.18L205.515 218.724C206.004 218.968 206.004 219.457 205.392 219.823L203.434 220.923C202.822 221.29 201.965 221.29 201.475 221.045Z" fill="#553DB4"/>
<path d="M210.901 226.422L204.781 222.878C204.291 222.634 204.291 222.145 204.903 221.778L206.862 220.679C207.474 220.312 208.331 220.312 208.82 220.556L214.94 224.1C215.43 224.344 215.43 224.833 214.818 225.2L212.86 226.3C212.248 226.666 211.391 226.666 210.901 226.422Z" fill="#553DB4"/>
<path d="M220.204 231.798L214.084 228.255C213.594 228.01 213.594 227.521 214.206 227.155L216.165 226.055C216.777 225.689 217.633 225.689 218.123 225.933L224.243 229.477C224.733 229.721 224.733 230.21 224.121 230.576L222.162 231.676C221.55 232.043 220.693 232.043 220.204 231.798Z" fill="#553DB4"/>
<path d="M272.469 261.857L266.349 258.314C265.86 258.069 265.86 257.581 266.472 257.214L268.43 256.114C269.042 255.748 269.899 255.748 270.389 255.992L276.509 259.536C276.998 259.78 276.998 260.269 276.386 260.635L274.428 261.735C273.816 262.102 272.959 262.224 272.469 261.857Z" fill="#553DB4"/>
<path d="M281.772 267.234L275.652 263.69C275.162 263.446 275.162 262.957 275.774 262.591L277.733 261.491C278.345 261.124 279.202 261.124 279.691 261.369L285.811 264.912C286.301 265.157 286.301 265.645 285.689 266.012L283.731 267.112C283.119 267.478 282.262 267.6 281.772 267.234Z" fill="#553DB4"/>
<path d="M291.075 272.61L284.955 269.067C284.465 268.822 284.465 268.334 285.077 267.967L287.036 266.867C287.648 266.501 288.504 266.501 288.994 266.745L295.114 270.289C295.604 270.533 295.604 271.022 294.992 271.388L293.033 272.488C292.421 272.855 291.565 272.977 291.075 272.61Z" fill="#553DB4"/>
<path d="M300.499 278.109L294.379 274.565C293.889 274.321 293.889 273.832 294.501 273.466L296.459 272.366C297.071 271.999 297.928 271.999 298.418 272.244L304.538 275.787C305.028 276.032 305.028 276.52 304.416 276.887L302.457 277.987C301.845 278.353 300.988 278.353 300.499 278.109Z" fill="#553DB4"/>
<path d="M207.841 235.83L201.72 232.287C201.231 232.043 201.231 231.554 201.843 231.187L207.841 227.644C208.453 227.277 209.309 227.277 209.799 227.521L215.919 231.065C216.409 231.309 216.409 231.798 215.797 232.165L209.799 235.708C209.187 236.075 208.33 236.075 207.841 235.83Z" fill="#553DB4"/>
<path d="M217.264 241.207L211.144 237.663C210.655 237.419 210.655 236.93 211.267 236.564L217.264 233.02C217.876 232.653 218.733 232.653 219.223 232.898L225.343 236.441C225.833 236.686 225.833 237.175 225.221 237.541L219.223 241.085C218.611 241.451 217.754 241.574 217.264 241.207Z" fill="#553DB4"/>
<path d="M226.69 246.706L220.57 243.162C220.08 242.918 220.08 242.429 220.692 242.062L226.69 238.519C227.302 238.152 228.159 238.152 228.649 238.397L234.769 241.94C235.258 242.184 235.258 242.673 234.646 243.04L228.649 246.583C228.037 246.95 227.18 246.95 226.69 246.706Z" fill="#553DB4"/>
<path d="M236.237 252.082L230.117 248.538C229.627 248.294 229.627 247.805 230.239 247.439L236.237 243.895C236.849 243.529 237.706 243.529 238.196 243.773L244.316 247.317C244.805 247.561 244.805 248.05 244.193 248.416L238.196 251.96C237.583 252.326 236.727 252.449 236.237 252.082Z" fill="#553DB4"/>
<path d="M245.663 257.581L239.543 254.037C239.053 253.793 239.053 253.304 239.665 252.937L245.663 249.394C246.275 249.027 247.132 249.027 247.621 249.272L253.741 252.815C254.231 253.06 254.231 253.548 253.619 253.915L247.621 257.458C247.009 257.825 246.152 257.825 245.663 257.581Z" fill="#553DB4"/>
<path d="M255.089 262.957L248.968 259.414C248.479 259.169 248.479 258.68 249.091 258.314L255.089 254.77C255.701 254.404 256.557 254.404 257.047 254.648L263.167 258.192C263.657 258.436 263.657 258.925 263.045 259.291L257.047 262.835C256.435 263.201 255.578 263.324 255.089 262.957Z" fill="#553DB4"/>
<path d="M264.512 268.456L258.392 264.912C257.903 264.668 257.903 264.179 258.515 263.812L264.512 260.269C265.124 259.902 265.981 259.902 266.471 260.147L272.591 263.69C273.081 263.935 273.081 264.423 272.469 264.79L266.471 268.334C265.859 268.7 265.002 268.7 264.512 268.456Z" fill="#553DB4"/>
<path d="M273.938 273.832L267.818 270.289C267.328 270.044 267.328 269.555 267.94 269.189L273.938 265.645C274.55 265.279 275.407 265.279 275.897 265.523L282.017 269.067C282.506 269.311 282.506 269.8 281.894 270.166L275.897 273.71C275.285 274.077 274.428 274.199 273.938 273.832Z" fill="#553DB4"/>
<path d="M283.364 279.331L277.244 275.787C276.754 275.543 276.754 275.054 277.366 274.688L283.364 271.144C283.976 270.777 284.833 270.777 285.322 271.022L291.443 274.565C291.932 274.81 291.932 275.298 291.32 275.665L285.322 279.209C284.71 279.575 283.854 279.575 283.364 279.331Z" fill="#553DB4"/>
<path d="M153.983 236.441L135.99 226.055C135.5 225.811 135.5 225.322 136.112 224.955L142.11 221.412C142.722 221.045 143.579 221.045 144.069 221.29L162.062 231.676C162.551 231.92 162.551 232.409 161.939 232.776L155.942 236.319C155.33 236.686 154.473 236.808 153.983 236.441Z" fill="#553DB4"/>
<path d="M269.899 303.281L251.906 292.894C251.416 292.65 251.416 292.161 252.028 291.794L258.026 288.251C258.638 287.884 259.495 287.884 259.985 288.129L277.978 298.515C278.468 298.759 278.468 299.248 277.856 299.615L271.858 303.158C271.246 303.525 270.389 303.525 269.899 303.281Z" fill="#553DB4"/>
<path d="M232.077 293.505L225.957 289.962C225.467 289.717 225.467 289.228 226.079 288.862L233.301 284.707C233.913 284.341 234.77 284.341 235.259 284.585L241.38 288.129C241.869 288.373 241.869 288.862 241.257 289.228L234.035 293.383C233.423 293.749 232.567 293.872 232.077 293.505Z" fill="#553DB4"/>
<path d="M163.651 254.037L153.859 248.416C153.369 248.172 153.369 247.683 153.981 247.317L161.203 243.162C161.815 242.795 162.672 242.795 163.162 243.04L172.954 248.661C173.444 248.905 173.444 249.394 172.832 249.76L165.61 253.915C164.998 254.281 164.141 254.404 163.651 254.037Z" fill="#553DB4"/>
<path d="M223.019 288.373L213.226 282.752C212.737 282.508 212.737 282.019 213.349 281.652L220.57 277.498C221.182 277.131 222.039 277.131 222.529 277.376L232.321 282.997C232.811 283.241 232.811 283.73 232.199 284.096L224.977 288.251C224.365 288.617 223.508 288.617 223.019 288.373Z" fill="#553DB4"/>
<path d="M177.239 261.857L167.447 256.237C166.957 255.992 166.957 255.503 167.569 255.137L174.791 250.982C175.403 250.616 176.26 250.616 176.75 250.86L186.542 256.481C187.031 256.725 187.032 257.214 186.419 257.581L179.198 261.735C178.586 262.102 177.729 262.224 177.239 261.857Z" fill="#553DB4"/>
<path d="M176.75 250.982L219.224 275.421C219.714 275.665 219.714 276.276 219.224 276.52L211.88 280.797C211.39 281.042 210.533 281.042 209.921 280.797L167.447 256.359L176.75 250.982Z" fill="#553DB4"/>
<path d="M258.515 303.403L265.369 307.313C265.737 307.557 265.736 307.924 265.247 308.168L262.309 309.879C261.82 310.123 261.085 310.123 260.718 310.001L253.863 306.091C253.496 305.847 253.496 305.48 253.986 305.236L256.923 303.525C257.413 303.158 258.025 303.158 258.515 303.403Z" fill="#553DB4"/>
<path d="M248.968 297.904L255.822 301.814C256.19 302.059 256.19 302.425 255.7 302.67L252.762 304.38C252.273 304.625 251.538 304.625 251.171 304.502L244.316 300.592C243.949 300.348 243.949 299.981 244.439 299.737L247.377 298.026C247.866 297.782 248.601 297.66 248.968 297.904Z" fill="#553DB4"/>
<path d="M239.542 292.527L246.397 296.438C246.764 296.682 246.764 297.049 246.274 297.293L243.337 299.004C242.847 299.248 242.112 299.248 241.745 299.126L234.891 295.216C234.523 294.971 234.523 294.605 235.013 294.36L237.951 292.65C238.44 292.283 239.175 292.283 239.542 292.527Z" fill="#553DB4"/>
<path d="M254.231 294.971L261.086 298.882C261.453 299.126 261.453 299.493 260.964 299.737L258.026 301.448C257.536 301.692 256.802 301.692 256.435 301.57L249.58 297.66C249.213 297.415 249.213 297.049 249.703 296.804L252.64 295.094C253.13 294.727 253.742 294.727 254.231 294.971Z" fill="#553DB4"/>
<path d="M264.269 161.049L258.393 157.628C257.904 157.261 257.414 156.528 257.414 155.795C257.414 155.062 257.781 154.695 258.393 155.062L264.269 158.483C264.758 158.85 265.248 159.583 265.248 160.316C265.248 161.049 264.881 161.293 264.269 161.049Z" fill="#E2DCFF"/>
<path d="M278.221 169.114L269.653 164.104C269.163 163.737 268.674 163.004 268.674 162.271C268.674 161.538 269.041 161.171 269.653 161.538L278.221 166.548C278.711 166.914 279.201 167.647 279.201 168.381C279.201 168.992 278.711 169.358 278.221 169.114Z" fill="#E2DCFF"/>
<path d="M261.452 192.086L255.577 188.664C255.087 188.298 254.598 187.565 254.598 186.832C254.598 186.098 254.965 185.732 255.577 186.098L261.452 189.52C261.942 189.886 262.431 190.62 262.431 191.353C262.431 192.086 261.942 192.452 261.452 192.086Z" fill="#E2DCFF"/>
<path d="M273.815 199.295L265.247 194.285C264.757 193.919 264.268 193.186 264.268 192.452C264.268 191.719 264.635 191.353 265.247 191.719L273.815 196.729C274.305 197.096 274.794 197.829 274.794 198.562C274.794 199.295 274.305 199.54 273.815 199.295Z" fill="#E2DCFF"/>
<path d="M248.233 157.261L244.561 155.184C244.072 154.817 243.582 154.084 243.582 153.351C243.582 152.618 243.949 152.251 244.561 152.618L248.233 154.695C248.723 155.062 249.213 155.795 249.213 156.528C249.213 157.261 248.845 157.628 248.233 157.261Z" fill="#E2DCFF"/>
<path d="M260.718 169.847L249.579 163.371C249.089 163.004 248.6 162.271 248.6 161.538C248.6 160.805 248.967 160.438 249.579 160.805L260.718 167.281C261.207 167.647 261.697 168.381 261.697 169.114C261.697 169.847 261.33 170.213 260.718 169.847Z" fill="#E2DCFF"/>
<path d="M253.374 176.567L249.702 174.49C249.212 174.124 248.723 173.39 248.723 172.657C248.723 171.924 249.09 171.558 249.702 171.924L253.374 174.001C253.864 174.368 254.353 175.101 254.353 175.834C254.353 176.567 253.986 176.934 253.374 176.567Z" fill="#E2DCFF"/>
<path d="M278.1 212.736L268.307 207.115C267.818 206.749 267.328 206.016 267.328 205.282C267.328 204.549 267.695 204.183 268.307 204.549L278.1 210.17C278.589 210.537 279.079 211.27 279.079 212.003C279.079 212.614 278.712 212.981 278.1 212.736Z" fill="#E2DCFF"/>
<path d="M252.274 186.832L249.948 185.487C249.458 185.121 248.969 184.388 248.969 183.655C248.969 182.921 249.336 182.555 249.948 182.921L252.274 184.266C252.763 184.632 253.253 185.365 253.253 186.098C253.253 186.832 252.886 187.198 252.274 186.832Z" fill="#E2DCFF"/>
<path d="M253.007 198.195L250.069 196.485C249.579 196.118 249.09 195.385 249.09 194.652C249.09 193.919 249.457 193.552 250.069 193.919L253.007 195.629C253.496 195.996 253.986 196.729 253.986 197.462C253.986 198.195 253.619 198.562 253.007 198.195Z" fill="#E2DCFF"/>
<path d="M264.39 204.794L256.678 200.395C256.189 200.028 255.699 199.295 255.699 198.562C255.699 197.829 256.066 197.462 256.678 197.829L264.39 202.228C264.879 202.594 265.369 203.327 265.369 204.061C265.369 204.794 264.879 205.038 264.39 204.794Z" fill="#E2DCFF"/>
<path d="M255.7 205.283L250.192 202.106C249.702 201.739 249.213 201.006 249.213 200.273C249.213 199.539 249.58 199.173 250.192 199.54L255.7 202.716C256.19 203.083 256.68 203.816 256.68 204.549C256.68 205.283 256.312 205.527 255.7 205.283Z" fill="#E2DCFF"/>
<path d="M286.547 217.502L282.997 215.424C282.507 215.058 282.018 214.325 282.018 213.592C282.018 212.858 282.385 212.492 282.997 212.858L286.547 214.936C287.036 215.302 287.526 216.035 287.526 216.769C287.526 217.502 287.036 217.868 286.547 217.502Z" fill="#E2DCFF"/>
<path d="M266.961 184.388L257.169 178.767C256.679 178.4 256.189 177.667 256.189 176.934C256.189 176.201 256.557 175.834 257.169 176.201L266.961 181.822C267.451 182.188 267.94 182.921 267.94 183.655C267.94 184.388 267.573 184.754 266.961 184.388Z" fill="#E2DCFF"/>
<path d="M266.716 178.767L249.702 168.992C249.212 168.625 248.723 167.892 248.723 167.159C248.723 166.425 249.09 166.059 249.702 166.425L266.716 176.201C267.206 176.567 267.695 177.301 267.695 178.034C267.695 178.767 267.206 179.133 266.716 178.767Z" fill="#E2DCFF"/>
<path d="M259.617 185.61L249.825 179.989C249.335 179.622 248.846 178.889 248.846 178.156C248.846 177.423 249.213 177.056 249.825 177.423L259.617 183.044C260.107 183.41 260.596 184.143 260.596 184.876C260.596 185.61 260.107 185.976 259.617 185.61Z" fill="#E2DCFF"/>
<path d="M274.427 188.664L270.878 186.587C270.388 186.221 269.898 185.487 269.898 184.754C269.898 184.021 270.266 183.655 270.878 184.021L274.427 186.098C274.917 186.465 275.407 187.198 275.407 187.931C275.407 188.664 274.917 189.031 274.427 188.664Z" fill="#E2DCFF"/>
<path d="M304.539 184.143L283.608 172.046C283.119 171.68 282.629 170.947 282.629 170.213C282.629 169.48 282.996 169.114 283.608 169.48L304.539 181.577C305.029 181.944 305.518 182.677 305.518 183.41C305.518 184.143 305.029 184.51 304.539 184.143Z" fill="#E2DCFF"/>
<path d="M261.82 197.829L250.069 191.108C249.579 190.742 249.09 190.009 249.09 189.275C249.09 188.542 249.457 188.176 250.069 188.542L261.82 195.263C262.309 195.629 262.799 196.363 262.799 197.096C262.677 197.829 262.309 198.073 261.82 197.829Z" fill="#E2DCFF"/>
<path d="M253.13 154.573L244.561 149.563C244.072 149.196 243.582 148.463 243.582 147.73C243.582 146.997 243.949 146.63 244.561 146.997L253.13 152.007C253.619 152.373 254.109 153.107 254.109 153.84C254.109 154.573 253.742 154.939 253.13 154.573Z" fill="#E2DCFF"/>
<path d="M255.456 210.537L245.419 204.794C244.929 204.427 244.439 203.694 244.439 202.961C244.439 202.228 244.807 201.861 245.419 202.228L255.456 207.971C255.945 208.337 256.435 209.07 256.435 209.804C256.435 210.537 255.945 210.903 255.456 210.537Z" fill="#E2DCFF"/>
<path d="M0.244125 219.212L51.6536 189.398C61.8131 183.532 71.483 182.555 78.7048 186.832C85.9266 190.986 89.9659 199.784 89.9659 211.514V215.302C89.5987 215.547 89.2315 215.791 88.8643 216.035V211.392C88.8643 200.028 85.0698 191.719 78.2152 187.687C71.3606 183.777 62.1803 184.632 52.2656 190.253L0.856143 220.068C0.611336 220.19 0.244126 220.19 0.121722 219.823C-0.123085 219.701 -0.000681632 219.335 0.244125 219.212Z" fill="#E2DCFF"/>
<path d="M160.592 183.655V67.9388C160.592 44.8445 176.872 16.496 196.946 5.00991C206.738 -0.610919 216.041 -1.58845 223.018 2.44388C229.995 6.47622 233.912 14.9075 233.912 26.2713V34.336C233.545 34.7026 233.177 35.0691 232.81 35.4357V26.2713C232.81 15.3962 229.138 7.20937 222.528 3.42142C215.919 -0.366535 206.983 0.488809 197.558 5.98745C177.851 17.3513 161.694 45.2111 161.694 67.9388V183.532C161.694 202.717 150.433 225.444 135.01 239.13C135.01 238.641 135.01 238.152 135.01 237.663C149.821 224.1 160.592 202.228 160.592 183.655Z" fill="#E2DCFF"/>
<path d="M233.912 37.8795C235.748 36.1688 244.439 28.4707 257.169 26.5157C271.49 24.3162 277.488 41.0565 277.488 41.0565C277.488 41.0565 279.079 49.8543 279.079 54.9864C279.079 60.1184 278.59 78.8138 278.59 78.8138L233.178 52.6647C233.055 52.5425 232.811 52.4204 232.811 52.176V38.857C233.178 38.4905 233.545 38.3683 233.912 37.8795Z" fill="#553DB4"/>
<path d="M266.226 27.2488L223.14 2.44388L223.262 3.05484C216.652 -1.22188 206.615 -1.58846 193.151 8.1869C166.467 27.7376 163.284 54.8642 161.938 59.9963C160.591 65.1284 161.081 97.387 161.081 97.387C161.081 97.387 160.959 175.223 160.959 184.266C160.836 193.308 158.266 203.45 153.125 214.447C147.984 225.444 134.887 238.763 134.887 238.763V254.648C136.968 271.755 144.312 275.787 155.083 276.765C163.896 277.498 173.199 271.266 180.666 264.423C180.421 264.668 180.176 264.912 180.176 264.912V280.797C182.257 297.904 189.601 301.936 200.373 302.914C211.267 303.891 222.895 293.994 230.851 285.563C238.807 277.131 245.54 264.301 249.212 252.815C252.884 241.207 251.66 226.3 251.66 226.3C251.66 226.3 251.782 141.254 251.782 124.391C251.905 107.651 252.394 110.584 257.902 93.7213C263.41 76.8588 277.977 65.0062 277.977 65.0062L312.984 54.6199L266.226 27.2488Z" fill="white"/>
<path d="M191.193 301.203C190.581 300.348 182.87 295.216 180.911 286.174C179.81 281.164 179.932 273.466 179.932 273.466C179.932 273.466 179.932 269.189 180.055 265.279C180.177 265.157 180.177 265.157 180.299 265.034C180.299 264.546 180.299 264.057 180.299 263.568C180.177 263.69 180.177 263.69 180.055 263.813C180.055 262.957 180.177 262.102 180.177 261.369C180.422 257.336 177.362 248.783 177.362 248.783C177.362 248.783 173.2 237.297 160.592 236.808C149.454 236.442 137.703 244.384 135.132 246.217V241.085C135.01 241.207 134.765 241.329 134.643 241.451C134.643 240.718 134.643 239.985 134.643 239.374C134.765 239.252 134.765 239.252 134.888 239.13C134.888 238.641 134.888 238.152 134.888 237.663C134.765 237.786 134.765 237.786 134.643 237.908C134.643 237.052 134.765 236.197 134.765 235.464C135.01 231.432 131.95 222.878 131.95 222.878C131.95 222.878 127.788 211.392 115.181 210.903C104.042 210.537 92.2912 218.479 89.7208 220.312V215.18C89.3536 215.425 88.9864 215.669 88.6191 215.913V224.955C88.6191 235.953 92.2912 244.262 99.0234 248.294L99.2682 248.416C99.3907 248.416 99.3907 248.539 99.5131 248.539H99.6355L145.782 275.054C145.782 275.054 145.782 275.054 145.782 274.932L191.193 301.203Z" fill="#553DB4"/>
<path d="M123.993 212.736C123.993 212.736 123.626 212.614 123.014 212.37C122.769 212.248 122.647 212.125 122.402 212.125L78.5818 186.832C78.5818 186.832 70.5031 182.555 60.8333 186.221C51.041 189.764 0.121094 220.312 0.121094 220.312L45.6552 246.461H45.7776L90.9445 272.488C90.9445 272.488 116.527 256.725 134.153 246.461L135.255 245.85C142.476 241.696 148.229 238.641 150.065 238.152C160.959 235.22 168.548 238.763 170.507 239.863L123.993 212.736Z" fill="white"/>
<path d="M170.629 239.619L171.119 239.863C171.241 239.985 170.996 239.863 170.629 239.619Z" fill="white"/>
<path d="M279.324 63.9064C281.16 62.1957 289.851 54.4977 302.581 52.5426C316.902 50.3431 322.9 67.0834 322.9 67.0834C322.9 67.0834 324.614 75.7591 324.491 80.8911C324.491 86.0232 324.002 104.719 324.002 104.719L278.59 78.5695C278.467 78.4473 278.223 78.3251 278.223 78.0807V64.884C278.467 64.5174 278.835 64.273 279.324 63.9064Z" fill="#553DB4"/>
<path d="M200.006 303.281C205.025 303.281 210.533 301.57 216.286 298.271C236.238 286.785 252.395 258.68 252.395 235.708V120.115C252.395 97.3871 268.43 69.5273 288.259 58.1634C297.684 52.6648 306.62 51.8095 313.229 55.5974C319.839 59.3854 323.511 67.5722 323.511 78.4473V104.352C323.511 104.719 323.756 104.963 324.123 104.963C324.491 104.963 324.735 104.719 324.735 104.352V78.4473C324.735 67.0835 320.818 58.6522 313.841 54.6199C306.864 50.5876 297.562 51.4429 287.769 57.1859C267.695 68.7942 251.293 97.0205 251.293 120.115V235.708C251.293 258.314 235.381 285.929 215.674 297.293C206.249 302.67 197.436 303.647 190.826 299.859C184.216 296.071 180.544 288.007 180.544 277.131V263.568C180.544 251.838 176.505 243.04 169.283 238.885C162.061 234.731 152.391 235.586 142.232 241.451L90.8221 271.266C90.5773 271.388 90.4549 271.755 90.5773 271.999C90.6997 272.244 91.0669 272.366 91.3117 272.244L142.721 242.429C152.514 236.808 161.694 235.831 168.671 239.863C175.525 243.773 179.32 252.204 179.32 263.568V277.131C179.32 288.373 183.114 296.804 190.091 300.837C193.274 302.425 196.579 303.281 200.006 303.281Z" fill="#553DB4"/>
<path d="M203.557 148.463L195.968 144.064C195.233 143.698 194.621 142.598 194.621 141.621C194.621 140.643 195.111 140.276 195.845 140.643L203.434 145.042C204.169 145.408 204.781 146.508 204.781 147.486C204.903 148.463 204.291 148.83 203.557 148.463Z" fill="#A99DD8"/>
<path d="M219.713 157.75L208.452 151.274C207.717 150.907 207.105 149.807 207.105 148.83C207.105 147.852 207.595 147.486 208.33 147.852L219.591 154.328C220.325 154.695 220.937 155.795 220.937 156.772C220.937 157.75 220.447 158.239 219.713 157.75Z" fill="#A99DD8"/>
<path d="M202.7 119.626L188.257 111.195C187.522 110.828 186.91 109.728 186.91 108.751C186.91 107.773 187.4 107.407 188.134 107.773L202.578 116.082C203.312 116.449 203.924 117.549 203.924 118.526C203.924 119.504 203.435 119.993 202.7 119.626Z" fill="#A99DD8"/>
<path d="M193.151 128.302L188.378 125.613C187.643 125.247 187.031 124.147 187.031 123.17C187.031 122.192 187.521 121.825 188.255 122.192L193.029 124.88C193.763 125.247 194.375 126.347 194.375 127.324C194.498 128.302 193.886 128.668 193.151 128.302Z" fill="#A99DD8"/>
<path d="M191.684 141.62L188.624 139.91C187.889 139.543 187.277 138.444 187.277 137.466C187.277 136.488 187.767 136.122 188.501 136.488L191.561 138.199C192.296 138.566 192.908 139.665 192.908 140.643C193.03 141.62 192.418 142.109 191.684 141.62Z" fill="#A99DD8"/>
<path d="M210.901 138.444L198.171 131.112C197.436 130.745 196.824 129.646 196.824 128.668C196.824 127.691 197.314 127.324 198.048 127.691L210.778 135.022C211.513 135.389 212.125 136.488 212.125 137.466C212.125 138.444 211.513 138.932 210.901 138.444Z" fill="#A99DD8"/>
<path d="M210.412 131.112L188.257 118.404C187.522 118.037 186.91 116.938 186.91 115.96C186.91 114.983 187.4 114.616 188.134 114.983L210.289 127.691C211.024 128.057 211.636 129.157 211.636 130.134C211.636 131.112 211.146 131.479 210.412 131.112Z" fill="#A99DD8"/>
<path d="M201.231 140.032L188.501 132.7C187.766 132.334 187.154 131.234 187.154 130.257C187.154 129.279 187.644 128.913 188.378 129.279L201.108 136.611C201.843 136.977 202.455 138.077 202.455 139.054C202.455 140.032 201.965 140.399 201.231 140.032Z" fill="#A99DD8"/>
<path d="M220.449 144.064L215.798 141.376C215.063 141.01 214.451 139.91 214.451 138.932C214.451 137.955 214.941 137.588 215.675 137.955L220.327 140.643C221.061 141.01 221.673 142.109 221.673 143.087C221.673 143.942 221.183 144.431 220.449 144.064Z" fill="#A99DD8"/>
<path d="M207.349 108.018L199.76 103.619C199.026 103.252 198.414 102.152 198.414 101.175C198.414 100.197 198.904 99.8308 199.638 100.197L207.227 104.596C207.962 104.963 208.574 106.063 208.574 107.04C208.574 108.018 208.084 108.384 207.349 108.018Z" fill="#A99DD8"/>
<path d="M225.465 118.404L214.204 111.928C213.469 111.561 212.857 110.462 212.857 109.484C212.857 108.506 213.347 108.14 214.081 108.507L225.343 114.983C226.077 115.349 226.689 116.449 226.689 117.427C226.689 118.404 226.199 118.893 225.465 118.404Z" fill="#A99DD8"/>
<path d="M203.555 148.463L195.966 144.064C195.231 143.698 194.619 142.598 194.619 141.621C194.619 140.643 195.109 140.276 195.843 140.643L203.432 145.042C204.167 145.408 204.779 146.508 204.779 147.486C204.901 148.463 204.289 148.83 203.555 148.463Z" fill="#A99DD8"/>
<path d="M219.713 157.75L208.452 151.274C207.717 150.907 207.105 149.807 207.105 148.83C207.105 147.852 207.595 147.486 208.33 147.852L219.591 154.329C220.325 154.695 220.937 155.795 220.937 156.772C220.937 157.75 220.447 158.239 219.713 157.75Z" fill="#A99DD8"/>
<path d="M186.542 103.13L181.768 100.442C181.034 100.075 180.422 98.9755 180.422 97.998C180.422 97.0205 180.911 96.6539 181.646 97.0205L186.42 99.7087C187.154 100.075 187.766 101.175 187.766 102.153C187.766 103.13 187.276 103.497 186.542 103.13Z" fill="#A99DD8"/>
<path d="M202.698 119.626L188.255 111.195C187.52 110.828 186.908 109.728 186.908 108.751C186.908 107.773 187.398 107.407 188.132 107.773L202.576 116.082C203.31 116.449 203.922 117.549 203.922 118.526C203.922 119.504 203.433 119.993 202.698 119.626Z" fill="#A99DD8"/>
<path d="M193.151 128.302L188.378 125.613C187.643 125.247 187.031 124.147 187.031 123.17C187.031 122.192 187.521 121.825 188.255 122.192L193.029 124.88C193.763 125.247 194.375 126.347 194.375 127.324C194.498 128.302 193.886 128.668 193.151 128.302Z" fill="#A99DD8"/>
<path d="M225.344 175.223L212.614 167.892C211.88 167.525 211.268 166.425 211.268 165.448C211.268 164.47 211.757 164.104 212.492 164.47L225.222 171.802C225.956 172.169 226.568 173.268 226.568 174.246C226.568 175.223 226.078 175.59 225.344 175.223Z" fill="#A99DD8"/>
<path d="M191.682 141.62L188.622 139.91C187.887 139.543 187.275 138.444 187.275 137.466C187.275 136.488 187.765 136.122 188.499 136.488L191.559 138.199C192.294 138.566 192.906 139.665 192.906 140.643C193.028 141.62 192.416 142.109 191.682 141.62Z" fill="#A99DD8"/>
<path d="M192.662 156.406L188.868 154.206C188.134 153.84 187.521 152.74 187.521 151.762C187.521 150.785 188.011 150.418 188.746 150.785L192.54 152.984C193.274 153.351 193.886 154.451 193.886 155.428C194.009 156.406 193.397 156.772 192.662 156.406Z" fill="#A99DD8"/>
<path d="M207.472 164.959L197.557 159.216C196.823 158.85 196.211 157.75 196.211 156.772C196.211 155.795 196.701 155.428 197.435 155.795L207.35 161.538C208.084 161.904 208.696 163.004 208.696 163.982C208.696 164.837 208.084 165.326 207.472 164.959Z" fill="#A99DD8"/>
<path d="M196.211 165.57L188.989 161.416C188.255 161.049 187.643 159.949 187.643 158.972C187.643 157.994 188.132 157.628 188.867 157.994L196.088 162.149C196.823 162.515 197.435 163.615 197.435 164.593C197.435 165.448 196.945 165.937 196.211 165.57Z" fill="#A99DD8"/>
<path d="M210.901 138.444L198.171 131.112C197.436 130.745 196.824 129.646 196.824 128.668C196.824 127.691 197.314 127.324 198.048 127.691L210.778 135.022C211.513 135.389 212.125 136.488 212.125 137.466C212.125 138.444 211.513 138.932 210.901 138.444Z" fill="#A99DD8"/>
<path d="M210.41 131.112L188.255 118.404C187.52 118.038 186.908 116.938 186.908 115.96C186.908 114.983 187.398 114.616 188.132 114.983L210.287 127.691C211.022 128.057 211.634 129.157 211.634 130.135C211.634 131.112 211.144 131.479 210.41 131.112Z" fill="#A99DD8"/>
<path d="M201.231 140.032L188.501 132.701C187.766 132.334 187.154 131.234 187.154 130.257C187.154 129.279 187.644 128.913 188.378 129.279L201.108 136.611C201.843 136.977 202.455 138.077 202.455 139.054C202.455 140.032 201.965 140.399 201.231 140.032Z" fill="#A99DD8"/>
<path d="M220.447 144.064L215.796 141.376C215.061 141.01 214.449 139.91 214.449 138.932C214.449 137.955 214.939 137.588 215.673 137.955L220.325 140.643C221.059 141.01 221.671 142.109 221.671 143.087C221.671 143.942 221.181 144.431 220.447 144.064Z" fill="#A99DD8"/>
<path d="M204.046 155.795L188.868 146.997C188.134 146.63 187.521 145.531 187.521 144.553C187.521 143.576 188.011 143.209 188.746 143.576L203.924 152.373C204.658 152.74 205.27 153.84 205.27 154.817C205.27 155.795 204.78 156.284 204.046 155.795Z" fill="#A99DD8"/>
<path d="M192.906 99.7087L181.645 93.2325C180.911 92.8659 180.299 91.7662 180.299 90.7887C180.299 89.8111 180.788 89.4446 181.523 89.8111L192.784 96.2873C193.518 96.6539 194.13 97.7536 194.13 98.7311C194.13 99.7087 193.518 100.075 192.906 99.7087Z" fill="#A99DD8"/>
<path d="M195.845 172.413L182.87 164.959C182.135 164.593 181.523 163.493 181.523 162.515C181.523 161.538 182.013 161.171 182.747 161.538L195.722 168.992C196.457 169.358 197.069 170.458 197.069 171.435C197.069 172.413 196.457 172.779 195.845 172.413Z" fill="#A99DD8"/>
<path d="M201.844 216.524L194.255 212.125C193.52 211.759 192.908 210.659 192.908 209.681C192.908 208.704 193.398 208.337 194.132 208.704L201.721 213.103C202.456 213.469 203.068 214.569 203.068 215.547C203.068 216.524 202.456 216.891 201.844 216.524Z" fill="#A99DD8"/>
<path d="M217.877 225.811L206.616 219.335C205.882 218.968 205.27 217.868 205.27 216.891C205.27 215.913 205.759 215.547 206.494 215.913L217.755 222.389C218.489 222.756 219.101 223.856 219.101 224.833C219.224 225.811 218.612 226.177 217.877 225.811Z" fill="#A99DD8"/>
<path d="M200.985 187.565L186.542 179.256C185.807 178.889 185.195 177.789 185.195 176.812C185.195 175.834 185.685 175.468 186.419 175.834L200.863 184.143C201.597 184.51 202.209 185.61 202.209 186.587C202.209 187.565 201.597 188.053 200.985 187.565Z" fill="#A99DD8"/>
<path d="M191.439 196.362L186.665 193.674C185.93 193.308 185.318 192.208 185.318 191.23C185.318 190.253 185.808 189.886 186.542 190.253L191.316 192.941C192.051 193.308 192.663 194.407 192.663 195.385C192.663 196.24 192.173 196.729 191.439 196.362Z" fill="#A99DD8"/>
<path d="M189.969 209.681L186.909 207.971C186.175 207.604 185.562 206.504 185.562 205.527C185.562 204.549 186.052 204.183 186.787 204.549L189.847 206.26C190.581 206.627 191.193 207.726 191.193 208.704C191.193 209.681 190.703 210.048 189.969 209.681Z" fill="#A99DD8"/>
<path d="M209.065 206.504L196.335 199.173C195.6 198.806 194.988 197.707 194.988 196.729C194.988 195.752 195.478 195.385 196.212 195.751L208.942 203.083C209.677 203.45 210.289 204.549 210.289 205.527C210.289 206.504 209.799 206.871 209.065 206.504Z" fill="#A99DD8"/>
<path d="M208.697 199.173L186.542 186.465C185.807 186.098 185.195 184.999 185.195 184.021C185.195 183.044 185.685 182.677 186.419 183.044L208.574 195.752C209.309 196.118 209.921 197.218 209.921 198.195C209.921 199.173 209.309 199.539 208.697 199.173Z" fill="#A99DD8"/>
<path d="M199.518 208.093L186.788 200.761C186.053 200.395 185.441 199.295 185.441 198.318C185.441 197.34 185.931 196.973 186.665 197.34L199.395 204.672C200.13 205.038 200.742 206.138 200.742 207.115C200.742 208.093 200.13 208.459 199.518 208.093Z" fill="#A99DD8"/>
<path d="M218.734 212.003L214.083 209.315C213.348 208.948 212.736 207.849 212.736 206.871C212.736 205.893 213.226 205.527 213.96 205.893L218.612 208.582C219.346 208.948 219.958 210.048 219.958 211.025C219.958 212.003 219.346 212.492 218.734 212.003Z" fill="#A99DD8"/>
<path d="M57.0391 290.573C57.0391 290.573 53.6118 288.862 51.531 291.428C49.4501 293.994 46.5124 299.981 46.39 304.014C46.2676 308.046 49.5725 307.802 51.531 306.824C53.4894 305.847 59.2424 297.537 59.6096 295.949C59.9768 294.36 59.2424 292.161 58.6304 291.672C58.1408 291.183 57.0391 290.573 57.0391 290.573Z" fill="#A99DD8"/>
<path d="M57.774 289.717L57.8964 293.261C57.8964 293.994 57.5292 294.727 56.9171 295.094C56.3051 295.46 55.4483 295.705 54.3467 295.46C51.7762 295.094 51.5314 294.36 51.409 290.817C51.1642 287.395 57.774 289.717 57.774 289.717Z" fill="#E2DCFF"/>
<path d="M44.6759 283.852C44.6759 283.852 41.2486 282.141 39.1677 284.707C37.0868 287.273 34.1491 293.261 34.0267 297.293C33.9043 301.325 37.2092 301.081 39.1677 300.104C41.1262 299.126 46.8791 290.817 47.2463 289.228C47.6135 287.64 46.8791 285.44 46.2671 284.952C45.7775 284.463 44.6759 283.852 44.6759 283.852Z" fill="#A99DD8"/>
<path d="M45.4107 282.997L45.5331 286.54C45.5331 287.273 45.1659 288.006 44.5539 288.373C43.9418 288.74 43.085 288.984 41.9834 288.74C39.4129 288.373 39.1681 287.64 39.0457 284.096C38.8009 280.553 45.4107 282.997 45.4107 282.997Z" fill="#E2DCFF"/>
<path d="M75.6445 218.479C74.6652 202.106 57.896 220.923 57.896 220.923L46.5124 232.165L36.2305 243.406C34.2721 245.606 33.2928 248.538 33.6601 251.593L37.8218 283.241C38.0666 284.829 39.413 285.929 41.0043 285.929C41.4939 285.929 41.9835 285.929 42.5955 285.807C46.2676 285.196 46.0228 281.652 46.0228 281.652L45.2884 252.082L66.9538 239.008C66.8314 239.008 76.6237 234.853 75.6445 218.479Z" fill="#553DB4"/>
<path d="M88.1289 224.711C87.1496 208.337 70.3803 227.155 70.3803 227.155L58.9968 238.396L48.7149 249.638C46.7564 251.838 45.7772 254.77 46.1444 257.825L50.3061 289.473C50.551 291.061 51.8974 292.161 53.4886 292.161C53.9783 292.161 54.4679 292.161 55.0799 292.039C58.752 291.428 58.5072 287.884 58.5072 287.884L57.7728 258.314L79.4382 245.239C79.1934 245.239 89.1081 241.085 88.1289 224.711Z" fill="#553DB4"/>
<path d="M78.2145 172.291C90.8221 177.545 90.5773 184.999 90.5773 184.999C90.5773 184.999 88.1292 212.37 88.986 230.698C89.3532 238.397 48.2256 238.885 54.3458 218.479C61.5676 194.407 58.8747 174.979 62.302 172.046C65.7293 169.114 74.9096 170.947 78.2145 172.291Z" fill="#A99DD8"/>
<path d="M82.2542 178.889C81.6422 181.455 78.2149 182.799 74.7876 181.944C71.2379 181.088 69.0347 178.278 69.6467 175.712C70.2587 173.146 73.686 171.802 77.1133 172.657C80.663 173.513 82.9887 176.323 82.2542 178.889Z" fill="#FFC2B0"/>
<path d="M76.868 182.799C76.1336 182.799 75.3992 182.677 74.5423 182.555C72.7063 182.066 71.115 181.088 70.1358 179.867C69.0342 178.522 68.667 177.056 69.0342 175.59C69.7686 172.657 73.4407 171.191 77.3576 172.168C79.1937 172.657 80.7849 173.635 81.7641 174.857C82.8658 176.201 83.233 177.667 82.8658 179.133C82.2538 181.333 79.8057 182.799 76.868 182.799ZM75.032 173.024C72.7063 173.024 70.7478 174.124 70.2582 175.834C70.0134 176.934 70.2582 178.034 71.115 179.011C71.9719 180.111 73.3183 180.966 74.9096 181.333C78.092 182.188 81.1521 180.966 81.6417 178.767C81.8865 177.667 81.6417 176.567 80.7849 175.59C79.9281 174.49 78.5817 173.635 76.9904 173.268C76.3784 173.024 75.644 173.024 75.032 173.024Z" fill="white"/>
<path d="M73.1971 171.68C73.1971 171.68 73.3195 172.168 73.0747 176.201C72.9523 177.423 77.4812 178.645 78.5829 177.545C79.6845 176.445 79.3173 175.223 79.5621 170.947C79.8069 166.67 73.1971 171.68 73.1971 171.68Z" fill="#FFC2B0"/>
<path d="M79.4386 170.947C79.4386 170.947 78.3369 174.979 72.9512 176.445L73.0736 172.779L79.4386 170.947Z" fill="#EA9C92"/>
<path d="M81.8945 168.156C84.611 163.487 83.0222 157.505 78.3457 154.793C73.6693 152.081 67.6762 153.667 64.9597 158.335C62.2432 163.004 63.832 168.986 68.5084 171.698C73.1848 174.41 79.178 172.824 81.8945 168.156Z" fill="#FFC2B0"/>
<path d="M75.5223 162.271C75.5223 162.271 70.1365 164.593 66.4644 164.593C62.7923 164.593 63.5268 161.538 63.5268 161.538L74.5431 159.949L75.5223 162.271Z" fill="#EA9C92"/>
<path d="M65.4856 162.882C65.4856 162.882 70.1369 160.927 74.2986 161.782C75.2778 162.027 76.1347 162.515 76.7467 163.248C76.9915 163.493 77.2363 163.737 77.4811 163.737C78.2155 163.859 79.4396 160.927 80.786 160.805C82.2548 160.682 83.1117 161.782 82.01 163.615C80.9084 165.448 81.2756 167.525 81.7652 167.892C82.2548 168.136 88.0078 163.859 82.9893 153.962C77.9707 144.064 65.3631 149.441 63.4047 151.396C63.4047 151.396 61.3238 153.229 59.6102 151.64C59.6102 151.64 57.6517 165.814 65.4856 162.882Z" fill="#FFAD00"/>
<path d="M83.4776 205.038V212.492C83.4776 213.347 83.1104 214.203 82.4984 214.691L67.3203 228.499L69.034 231.187L89.1082 216.646C90.0874 215.913 90.6994 214.936 90.8218 213.714L92.1682 200.761L83.4776 205.038Z" fill="#FFC2B0"/>
<path d="M89.5982 181.333C89.5982 181.333 94.2495 188.298 95.9632 206.504C95.9632 206.504 88.007 209.07 83.6004 207.604C79.0715 206.138 89.5982 181.333 89.5982 181.333Z" fill="#A99DD8"/>
<path d="M82.7436 190.131C82.7436 190.131 80.9076 199.784 80.7852 204.305C80.7852 205.527 81.5196 206.627 82.7436 207.115V190.131Z" fill="#553DB4"/>
<path d="M78.7053 238.152L75.278 237.663L53.4902 225.078C52.7558 224.711 51.5317 224.711 50.7973 225.2L35.4969 234.242L33.416 233.998V236.075C33.416 236.319 33.5384 236.564 33.9056 236.808L58.5087 250.982C59.2432 251.349 60.4672 251.349 61.2016 250.86L77.9709 241.207C78.4605 240.963 78.7053 240.596 78.5829 240.352V238.152H78.7053Z" fill="#A99DD8"/>
<path d="M62.4257 230.21L60.8344 229.354H43.8203L35.4969 234.12L33.416 233.875V235.953C33.416 236.197 33.5384 236.441 33.9056 236.686L58.5087 250.86C58.876 251.104 59.3656 251.104 59.8552 251.104L62.4257 230.21Z" fill="#553DB4"/>
<path d="M34.3959 233.998L33.5391 233.875V235.953C33.5391 236.197 33.6615 236.441 34.0287 236.686L34.5183 236.93V233.998H34.3959Z" fill="#A99DD8"/>
<path d="M58.877 250.982C59.489 251.227 60.4682 251.227 61.2026 250.86V247.439H58.877V250.982Z" fill="white"/>
<path d="M58.5092 248.783L33.9061 234.609C33.1716 234.242 33.294 233.509 34.1509 233.02L50.9202 223.367C51.777 222.878 53.001 222.878 53.613 223.245L78.2161 237.419C78.9506 237.786 78.8282 238.519 77.9713 239.008L61.2021 248.661C60.4676 249.149 59.2436 249.272 58.5092 248.783Z" fill="white"/>
<path d="M58.1426 246.706L37.7012 234.853C37.0892 234.486 37.2116 233.875 37.8236 233.509L46.7591 228.499C47.3711 228.132 48.4727 228.132 48.9623 228.377L69.4037 240.229C70.0157 240.596 69.8933 241.207 69.2813 241.574L60.3459 246.583C59.7338 246.95 58.7546 247.072 58.1426 246.706Z" fill="#E2DCFF"/>
<path d="M51.8978 223L51.653 224.711C51.4082 226.177 51.5306 227.644 51.7754 229.11L52.0202 230.576C52.1426 231.432 52.877 232.043 53.7338 232.287C54.3459 232.409 55.0803 231.92 55.0803 231.309L55.4475 227.644C55.4475 227.644 56.4267 228.866 56.7939 228.866C57.2835 228.866 56.3043 225.2 55.3251 223.122C54.3459 220.923 51.8978 223 51.8978 223Z" fill="#FFC2B0"/>
<path d="M60.2213 195.996L57.5285 201.25C56.9164 202.472 56.5492 203.816 56.4268 205.16L55.3252 223L51.8979 222.878L50.3066 202.839C50.3066 202.228 50.3066 201.617 50.429 201.006L52.2651 190.864L60.2213 195.996Z" fill="#FFC2B0"/>
<path d="M57.7738 250.249L55.6929 247.561L33.9051 234.975C33.1707 234.609 32.6811 233.509 32.6811 232.531V214.814L31.457 213.225L32.6811 212.492C32.9259 212.37 33.1707 212.37 33.5379 212.492L58.141 226.666C58.8754 227.033 59.365 228.132 59.365 229.11V248.416C59.365 248.905 59.2426 249.272 58.8754 249.394L57.7738 250.249Z" fill="#553DB4"/>
<path d="M42.7182 239.985L41.1269 239.13L32.6811 224.467V214.814L31.457 213.225L32.6811 212.492C32.9259 212.37 33.1707 212.37 33.5379 212.492L58.141 226.666C58.5082 226.911 58.8754 227.277 59.1202 227.766L42.7182 239.985Z" fill="#553DB4"/>
<path d="M31.946 213.836L31.334 213.103L32.558 212.37C32.8028 212.247 33.0476 212.247 33.4148 212.37L33.9045 212.614L31.946 213.836Z" fill="#A99DD8"/>
<path d="M58.2638 226.911C58.7534 227.399 59.2431 228.255 59.2431 228.988L56.795 230.332L55.6934 228.377L58.2638 226.911Z" fill="#274F89"/>
<path d="M56.917 227.399L32.3139 213.225C31.5795 212.858 31.0898 213.225 31.0898 214.202V233.509C31.0898 234.486 31.7019 235.464 32.3139 235.953L56.917 250.127C57.6514 250.493 58.141 250.127 58.141 249.149V229.843C58.141 228.866 57.6514 227.888 56.917 227.399Z" fill="#A99DD8"/>
<path d="M69.0349 231.187L68.6677 232.043C68.1781 233.02 67.4437 233.753 66.5869 234.364L64.1388 235.83C63.4044 236.319 62.4251 236.319 61.6907 235.83C61.6907 235.83 61.6907 235.83 61.5683 235.83C60.8339 235.342 60.7115 234.242 61.3235 233.631L63.894 231.065C63.894 231.065 62.4251 232.165 62.0579 231.676C61.8131 231.309 63.4044 229.721 64.7508 229.721C66.0972 229.721 67.3213 228.621 67.3213 228.621L69.0349 231.187Z" fill="#FFC2B0"/>
<path d="M62.5484 172.046C62.5484 172.046 53.1233 182.188 49.4512 191.597C49.4512 191.597 52.6337 197.34 60.4675 199.662C68.3013 201.861 62.5484 172.046 62.5484 172.046Z" fill="#A99DD8"/>
<path d="M58.6316 198.929L60.1005 184.266L56.5508 197.951C57.2852 198.318 57.8972 198.684 58.6316 198.929Z" fill="#553DB4"/>
<path d="M271.487 68.2311L232.204 45.6123C231.468 45.1717 230.732 45.1717 230.144 45.4655L226.318 47.6686C226.318 47.6686 227.937 48.2561 228.967 48.6967V77.3373C228.967 79.6873 230.438 82.3311 232.204 83.3592L269.869 105.097V108.475L273.694 106.272C274.282 105.831 274.724 104.95 274.724 103.775V74.2529C274.577 71.9029 273.253 69.2592 271.487 68.2311Z" fill="#EF8F00"/>
<path d="M267.661 108.181L228.377 85.5623C226.612 84.5341 225.141 81.8904 225.141 79.5404V50.1654C225.141 47.8154 226.612 46.7873 228.377 47.8154L267.661 70.4341C269.426 71.4623 270.898 74.106 270.898 76.456V105.684C270.751 108.034 269.279 109.062 267.661 108.181Z" fill="#FFAD00"/>
<path d="M241.472 75.4279C241.472 77.1904 240.295 77.7779 238.824 76.8966C237.353 76.0154 236.176 73.9592 236.176 72.3435C236.176 70.581 237.353 69.9935 238.824 70.8748C240.295 71.6092 241.472 73.6654 241.472 75.4279Z" fill="white"/>
<path d="M249.564 79.981C249.564 81.7435 248.387 82.331 246.916 81.4497C245.445 80.5685 244.268 78.5123 244.268 76.8966C244.268 75.1341 245.445 74.5466 246.916 75.4279C248.387 76.3091 249.564 78.3654 249.564 79.981Z" fill="white"/>
<path d="M257.51 84.681C257.51 86.4435 256.333 87.031 254.861 86.1497C253.39 85.2685 252.213 83.2122 252.213 81.5966C252.213 79.8341 253.39 79.2466 254.861 80.1278C256.333 80.8622 257.51 82.9185 257.51 84.681Z" fill="white"/>
<path d="M108.447 44.4599L76.3773 26.0089C75.7652 25.6423 75.1532 25.6423 74.6636 25.8867L71.6035 27.7196C71.6035 27.7196 72.95 28.2083 73.8068 28.5749V51.9136C73.8068 53.8686 74.9084 56.0681 76.3773 56.8013L107.101 74.5191V77.2073L110.283 75.3744C110.773 75.0079 111.14 74.3969 111.14 73.2972V49.4697C111.017 47.5147 109.793 45.3152 108.447 44.4599Z" fill="#A99DD8"/>
<path d="M105.265 77.0851L73.1955 58.5119C71.7266 57.6566 70.625 55.4571 70.625 53.6243V29.7968C70.625 27.8417 71.7266 26.9864 73.1955 27.8417L105.265 46.2927C106.734 47.1481 107.836 49.3475 107.836 51.1804V75.0078C107.836 76.9629 106.734 77.8183 105.265 77.0851Z" fill="#E2DCFF"/>
<path d="M83.9671 50.3251C83.9671 51.6692 82.9878 52.2802 81.7638 51.547C80.5398 50.8139 79.5605 49.2254 79.5605 47.7591C79.5605 46.415 80.5398 45.804 81.7638 46.5371C82.9878 47.2703 83.9671 48.981 83.9671 50.3251Z" fill="white"/>
<path d="M90.4554 54.1131C90.4554 55.4572 89.4761 56.0681 88.2521 55.335C87.0281 54.6018 86.0488 53.0133 86.0488 51.547C86.0488 50.2029 87.0281 49.592 88.2521 50.3251C89.4761 51.0583 90.4554 52.769 90.4554 54.1131Z" fill="white"/>
<path d="M97.0648 57.901C97.0648 59.2451 96.0855 59.8561 94.8615 59.1229C93.6374 58.3898 92.6582 56.8013 92.6582 55.335C92.6582 53.9909 93.6374 53.3799 94.8615 54.1131C96.0855 54.8462 97.0648 56.5569 97.0648 57.901Z" fill="white"/>
</g>
<defs>
<clipPath id="clip0">
<rect width="330" height="359" fill="white"/>
</clipPath>
</defs>
</svg>
