<svg width="300" height="363" viewBox="0 0 300 363" fill="none" xmlns="http://www.w3.org/2000/svg">
<path d="M74.5488 200.415V143.257L93.1367 132.588V189.746L74.5488 200.415Z" fill="#C13D1A"/>
<path d="M74.5488 143.257L55.9609 132.588V189.746L74.5488 200.415V143.257Z" fill="#DB5126"/>
<path d="M93.1367 132.588L74.5488 121.918L55.9609 132.588L74.5488 143.257L93.1367 132.588Z" fill="#EF602E"/>
<path d="M74.5488 200.415V143.257L93.1367 132.588V189.746L74.5488 200.415Z" fill="#A99DD8"/>
<path d="M74.5488 143.257L55.9609 132.588V189.746L74.5488 200.415V143.257Z" fill="#E2DCFF"/>
<path d="M93.1367 132.588L74.5488 121.918L55.9609 132.588L74.5488 143.257L93.1367 132.588Z" fill="#EDEAFF"/>
<path d="M280.55 125.186L147.049 48.3811C145.383 47.4315 143.717 47.194 142.527 47.7876L142.289 47.9063L137.887 49.9243L142.646 52.2985C142.646 52.4172 142.646 52.4172 142.646 52.5359V161.866C142.646 167.327 146.097 173.737 150.261 176.112L280.074 250.898L280.788 256.952L285.548 254.697C287.094 253.747 288.046 251.729 288.046 248.761V139.431C288.046 133.97 284.715 127.56 280.55 125.186Z" fill="#553DB4"/>
<path d="M280.55 125.186L147.049 48.3811C145.383 47.4315 143.717 47.194 142.527 47.7876L142.289 47.9063L137.887 49.9243L142.646 52.2985C142.646 52.4172 142.646 52.4172 142.646 52.5359V124.592L203.329 172.432L285.786 131.002C284.477 128.509 282.573 126.373 280.55 125.186Z" fill="#553DB4"/>
<path d="M282.811 126.966L269.723 132.427L279.598 140.024L287.808 136.582C287.094 132.902 285.191 129.34 282.811 126.966Z" fill="#274F89"/>
<path d="M276.148 256.359L142.765 179.554C138.601 177.18 135.15 170.77 135.15 165.309V55.9785C135.15 50.5179 138.482 48.025 142.765 50.3992L276.148 127.204C280.312 129.578 283.763 135.988 283.763 141.449V250.779C283.763 256.359 280.312 258.851 276.148 256.359Z" fill="#E2DCFF"/>
<path d="M271.744 248.286L147.167 176.586C143.359 174.331 140.266 168.514 140.266 163.528V63.4571C140.266 58.4713 143.359 56.2159 147.167 58.3526L271.744 130.053C275.552 132.308 278.646 138.125 278.646 143.111V243.182C278.646 248.168 275.552 250.542 271.744 248.286Z" fill="white"/>
<path d="M271.744 248.286L147.167 176.586C143.359 174.331 140.266 168.514 140.266 163.528V63.4571C140.266 58.4713 143.359 56.2159 147.167 58.3526L271.744 130.053C275.552 132.308 278.646 138.125 278.646 143.111V243.182C278.646 248.168 275.552 250.542 271.744 248.286Z" fill="white"/>
<path d="M278.169 259.801L260.202 257.427L144.43 190.713C140.741 188.576 134.197 188.813 129.913 191.306L47.8134 238.552L36.9858 237.128V243.301C36.8668 244.725 37.6997 246.031 39.4845 247.099L170.725 322.717C174.414 324.853 180.958 324.616 185.242 322.123L274.599 270.604C276.979 269.179 278.169 267.398 278.169 265.737V259.801Z" fill="#553DB4"/>
<path d="M191.191 217.659L182.981 212.911H92.5521L47.9326 238.552L37.1049 237.128V243.301C36.9859 244.725 37.8188 246.031 39.6036 247.099L170.844 322.717C172.748 323.904 175.485 324.26 178.34 324.141L191.191 217.659Z" fill="#553DB4"/>
<path d="M41.8643 237.84L37.1049 237.246V243.419C36.9859 244.844 37.8188 246.149 39.6036 247.218L41.8643 248.524V237.84Z" fill="#A99DD8"/>
<path d="M172.035 323.31C175.605 324.616 180.602 324.379 184.291 322.598V308.946H172.035V323.31Z" fill="#274F89"/>
<path d="M170.725 316.544L39.4841 240.926C35.7956 238.79 36.2715 235.11 40.555 232.617L129.913 181.097C134.196 178.604 140.741 178.367 144.429 180.504L275.67 256.121C279.359 258.258 278.883 261.938 274.599 264.431L185.241 315.95C180.958 318.443 174.532 318.68 170.725 316.544Z" fill="#E2DCFF"/>
<path d="M274.601 262.294L185.243 313.813C180.959 316.306 174.415 316.544 170.726 314.407L39.4856 238.671C38.2957 237.959 37.4628 237.128 37.2249 236.178C36.63 237.959 37.3439 239.739 39.4856 240.926L170.726 316.544C174.415 318.68 180.959 318.443 185.243 315.95L274.601 264.431C277.456 262.769 278.646 260.513 277.932 258.614C277.575 259.92 276.385 261.225 274.601 262.294Z" fill="white"/>
<path d="M95.2887 215.879L89.3394 212.436C88.8635 212.199 88.8635 211.724 89.4584 211.368L96.4785 207.332C97.0735 206.976 97.9064 206.976 98.3823 207.213L104.332 210.656C104.808 210.893 104.808 211.368 104.213 211.724L97.1924 215.76C96.5975 216.116 95.7646 216.235 95.2887 215.879Z" fill="#553DB4"/>
<path d="M104.57 221.221L98.6207 217.778C98.1447 217.541 98.1447 217.066 98.7397 216.71L105.76 212.674C106.355 212.318 107.188 212.318 107.664 212.555L113.613 215.998C114.089 216.235 114.089 216.71 113.494 217.066L106.474 221.102C105.879 221.458 105.046 221.458 104.57 221.221Z" fill="#553DB4"/>
<path d="M113.732 226.444L107.783 223.002C107.307 222.764 107.307 222.289 107.902 221.933L114.922 217.897C115.517 217.541 116.35 217.541 116.826 217.778L122.775 221.221C123.251 221.458 123.251 221.933 122.656 222.289L115.636 226.326C115.041 226.682 114.208 226.8 113.732 226.444Z" fill="#553DB4"/>
<path d="M126.343 222.171L120.394 218.728C119.918 218.491 119.918 218.016 120.513 217.66L126.343 214.217C126.938 213.861 127.771 213.861 128.247 214.098L134.196 217.541C134.672 217.778 134.672 218.253 134.077 218.609L128.247 222.052C127.652 222.408 126.819 222.408 126.343 222.171Z" fill="#553DB4"/>
<path d="M135.505 227.394L129.556 223.951C129.08 223.714 129.08 223.239 129.675 222.883L135.505 219.44C136.1 219.084 136.933 219.084 137.409 219.322L143.359 222.764C143.834 223.002 143.834 223.476 143.24 223.833L137.409 227.275C136.814 227.631 135.981 227.75 135.505 227.394Z" fill="#553DB4"/>
<path d="M144.668 232.736L138.718 229.293C138.242 229.056 138.242 228.581 138.837 228.225L144.668 224.782C145.263 224.426 146.095 224.426 146.571 224.664L152.521 228.106C152.997 228.343 152.997 228.818 152.402 229.174L146.571 232.617C145.976 232.973 145.144 232.973 144.668 232.736Z" fill="#553DB4"/>
<path d="M153.83 237.959L147.88 234.516C147.404 234.279 147.404 233.804 147.999 233.448L153.83 230.005C154.425 229.649 155.258 229.649 155.733 229.887L161.683 233.329C162.159 233.567 162.159 234.041 161.564 234.398L155.733 237.84C155.139 238.196 154.306 238.315 153.83 237.959Z" fill="#553DB4"/>
<path d="M162.992 243.301L157.043 239.858C156.567 239.621 156.567 239.146 157.162 238.79L162.992 235.347C163.587 234.991 164.42 234.991 164.896 235.228L170.845 238.671C171.321 238.908 171.321 239.383 170.726 239.739L164.896 243.182C164.42 243.538 163.587 243.538 162.992 243.301Z" fill="#553DB4"/>
<path d="M172.273 248.524L166.324 245.081C165.848 244.844 165.848 244.369 166.443 244.013L172.273 240.57C172.868 240.214 173.701 240.214 174.177 240.452L180.126 243.894C180.602 244.132 180.602 244.607 180.007 244.963L174.177 248.405C173.582 248.761 172.749 248.88 172.273 248.524Z" fill="#553DB4"/>
<path d="M181.433 253.866L175.484 250.423C175.008 250.186 175.008 249.711 175.603 249.355L181.433 245.912C182.028 245.556 182.861 245.556 183.337 245.794L189.286 249.236C189.762 249.473 189.762 249.948 189.167 250.304L183.337 253.747C182.742 254.103 181.909 254.103 181.433 253.866Z" fill="#553DB4"/>
<path d="M190.595 259.089L184.646 255.646C184.17 255.409 184.17 254.934 184.765 254.578L190.595 251.135C191.19 250.779 192.023 250.779 192.499 251.017L198.448 254.459C198.924 254.697 198.924 255.172 198.329 255.528L192.499 258.97C191.904 259.326 191.071 259.445 190.595 259.089Z" fill="#553DB4"/>
<path d="M199.757 264.431L193.808 260.988C193.332 260.751 193.332 260.276 193.927 259.92L199.757 256.477C200.352 256.121 201.185 256.121 201.661 256.359L207.61 259.801C208.086 260.039 208.086 260.513 207.491 260.87L201.661 264.312C201.066 264.668 200.233 264.668 199.757 264.431Z" fill="#553DB4"/>
<path d="M208.92 269.654L202.97 266.211C202.494 265.974 202.494 265.499 203.089 265.143L208.92 261.7C209.514 261.344 210.347 261.344 210.823 261.582L216.773 265.024C217.249 265.262 217.249 265.737 216.654 266.093L210.823 269.535C210.228 269.891 209.395 270.01 208.92 269.654Z" fill="#553DB4"/>
<path d="M139.91 219.678L133.961 216.235C133.485 215.998 133.485 215.523 134.08 215.167L139.91 211.724C140.505 211.368 141.338 211.368 141.814 211.606L147.763 215.048C148.239 215.286 148.239 215.76 147.644 216.117L141.814 219.559C141.219 219.915 140.386 219.915 139.91 219.678Z" fill="#553DB4"/>
<path d="M130.627 214.217L124.677 210.775C124.201 210.537 124.201 210.062 124.796 209.706L130.627 206.264C131.222 205.908 132.054 205.908 132.53 206.145L138.48 209.587C138.956 209.825 138.956 210.3 138.361 210.656L132.53 214.098C131.935 214.455 131.103 214.573 130.627 214.217Z" fill="#553DB4"/>
<path d="M121.227 208.875L108.496 201.515C108.02 201.278 108.02 200.803 108.615 200.447L114.445 197.005C115.04 196.648 115.873 196.648 116.349 196.886L129.08 204.246C129.556 204.483 129.556 204.958 128.961 205.314L123.131 208.757C122.536 209.113 121.703 209.231 121.227 208.875Z" fill="#553DB4"/>
<path d="M127.771 202.346L117.419 196.411C116.944 196.174 116.944 195.699 117.538 195.343L123.369 191.9C123.964 191.544 124.797 191.544 125.273 191.781L135.624 197.717C136.1 197.954 136.1 198.429 135.505 198.785L129.675 202.228C129.08 202.584 128.247 202.702 127.771 202.346Z" fill="#553DB4"/>
<path d="M149.068 224.901L143.119 221.458C142.643 221.221 142.643 220.746 143.238 220.39L149.068 216.947C149.663 216.591 150.496 216.591 150.972 216.829L156.921 220.271C157.397 220.509 157.397 220.984 156.802 221.34L150.972 224.782C150.377 225.138 149.544 225.138 149.068 224.901Z" fill="#553DB4"/>
<path d="M158.232 230.243L152.283 226.8C151.807 226.563 151.807 226.088 152.402 225.732L158.232 222.289C158.827 221.933 159.66 221.933 160.136 222.171L166.085 225.613C166.561 225.851 166.561 226.325 165.966 226.681L160.136 230.124C159.541 230.48 158.708 230.48 158.232 230.243Z" fill="#553DB4"/>
<path d="M167.394 235.466L161.445 232.023C160.969 231.786 160.969 231.311 161.564 230.955L167.394 227.513C167.989 227.156 168.822 227.156 169.298 227.394L175.247 230.836C175.723 231.074 175.723 231.549 175.128 231.905L169.298 235.347C168.703 235.703 167.87 235.703 167.394 235.466Z" fill="#553DB4"/>
<path d="M176.556 240.808L170.607 237.365C170.131 237.128 170.131 236.653 170.726 236.297L176.556 232.854C177.151 232.498 177.984 232.498 178.46 232.736L184.409 236.178C184.885 236.416 184.885 236.89 184.29 237.247L178.46 240.689C177.865 241.045 177.032 241.045 176.556 240.808Z" fill="#553DB4"/>
<path d="M185.718 246.031L179.769 242.588C179.293 242.351 179.293 241.876 179.888 241.52L185.718 238.078C186.313 237.721 187.146 237.721 187.622 237.959L193.571 241.401C194.047 241.639 194.047 242.114 193.452 242.47L187.622 245.912C187.027 246.268 186.194 246.268 185.718 246.031Z" fill="#553DB4"/>
<path d="M194.88 251.373L188.931 247.93C188.455 247.693 188.455 247.218 189.05 246.862L194.88 243.419C195.475 243.063 196.308 243.063 196.784 243.301L202.734 246.743C203.209 246.981 203.209 247.456 202.615 247.812L196.784 251.254C196.189 251.61 195.356 251.61 194.88 251.373Z" fill="#553DB4"/>
<path d="M204.043 256.596L198.093 253.154C197.617 252.916 197.617 252.441 198.212 252.085L204.043 248.643C204.638 248.286 205.47 248.286 205.946 248.524L211.896 251.966C212.372 252.204 212.372 252.679 211.777 253.035L205.946 256.477C205.351 256.833 204.519 256.833 204.043 256.596Z" fill="#553DB4"/>
<path d="M213.203 261.938L207.253 258.495C206.778 258.258 206.778 257.783 207.372 257.427L213.203 253.984C213.798 253.628 214.631 253.628 215.107 253.866L221.056 257.308C221.532 257.546 221.532 258.021 220.937 258.377L215.107 261.819C214.512 262.175 213.679 262.175 213.203 261.938Z" fill="#553DB4"/>
<path d="M222.365 267.161L216.416 263.719C215.94 263.481 215.94 263.006 216.535 262.65L222.365 259.208C222.96 258.852 223.793 258.852 224.269 259.089L230.218 262.531C230.694 262.769 230.694 263.244 230.099 263.6L224.269 267.042C223.674 267.399 222.841 267.399 222.365 267.161Z" fill="#553DB4"/>
<path d="M238.666 276.539L225.697 269.06C225.221 268.823 225.221 268.348 225.816 267.992L231.646 264.55C232.241 264.193 233.074 264.193 233.55 264.431L246.519 271.909C246.995 272.147 246.995 272.622 246.4 272.978L240.57 276.42C239.975 276.777 239.142 276.895 238.666 276.539Z" fill="#553DB4"/>
<path d="M256.632 266.33L245.685 260.039C245.209 259.801 245.209 259.326 245.804 258.97L251.634 255.528C252.229 255.171 253.062 255.171 253.538 255.409L264.485 261.7C264.961 261.938 264.961 262.413 264.366 262.769L258.536 266.211C257.941 266.568 257.108 266.568 256.632 266.33Z" fill="#553DB4"/>
<path d="M165.132 223.833L159.183 220.39C158.707 220.153 158.707 219.678 159.302 219.322L165.132 215.879C165.727 215.523 166.56 215.523 167.036 215.76L172.985 219.203C173.461 219.44 173.461 219.915 172.866 220.271L167.036 223.714C166.441 224.07 165.608 224.189 165.132 223.833Z" fill="#553DB4"/>
<path d="M155.732 218.491L149.783 215.048C149.307 214.811 149.307 214.336 149.902 213.98L155.732 210.537C156.327 210.181 157.16 210.181 157.636 210.418L163.585 213.861C164.061 214.098 164.061 214.573 163.466 214.929L157.636 218.372C157.041 218.728 156.208 218.728 155.732 218.491Z" fill="#553DB4"/>
<path d="M146.332 213.03L140.382 209.587C139.906 209.35 139.906 208.875 140.501 208.519L146.332 205.077C146.927 204.72 147.759 204.72 148.235 204.958L154.185 208.4C154.661 208.638 154.661 209.113 154.066 209.469L148.235 212.911C147.64 213.267 146.808 213.386 146.332 213.03Z" fill="#553DB4"/>
<path d="M136.933 207.688L130.984 204.246C130.508 204.008 130.508 203.533 131.103 203.177L136.933 199.735C137.528 199.378 138.361 199.378 138.837 199.616L144.786 203.058C145.262 203.296 145.262 203.771 144.667 204.127L138.837 207.569C138.242 207.926 137.409 207.925 136.933 207.688Z" fill="#553DB4"/>
<path d="M174.295 229.174L168.345 225.732C167.869 225.494 167.869 225.02 168.464 224.663L174.295 221.221C174.889 220.865 175.722 220.865 176.198 221.102L182.148 224.545C182.624 224.782 182.624 225.257 182.029 225.613L176.198 229.056C175.603 229.412 174.77 229.412 174.295 229.174Z" fill="#553DB4"/>
<path d="M183.457 234.398L177.507 230.955C177.031 230.718 177.031 230.243 177.626 229.887L183.457 226.444C184.052 226.088 184.884 226.088 185.36 226.325L191.31 229.768C191.786 230.005 191.786 230.48 191.191 230.836L185.36 234.279C184.765 234.635 183.933 234.754 183.457 234.398Z" fill="#553DB4"/>
<path d="M192.621 239.739L186.671 236.297C186.196 236.06 186.196 235.585 186.79 235.229L192.621 231.786C193.216 231.43 194.049 231.43 194.524 231.667L200.474 235.11C200.95 235.347 200.95 235.822 200.355 236.178L194.524 239.621C193.93 239.977 193.097 239.977 192.621 239.739Z" fill="#553DB4"/>
<path d="M201.779 244.963L195.83 241.52C195.354 241.283 195.354 240.808 195.949 240.452L201.779 237.009C202.374 236.653 203.207 236.653 203.683 236.89L209.632 240.333C210.108 240.57 210.108 241.045 209.513 241.401L203.683 244.844C203.088 245.2 202.255 245.319 201.779 244.963Z" fill="#553DB4"/>
<path d="M210.941 250.305L204.992 246.862C204.516 246.625 204.516 246.15 205.111 245.794L210.941 242.351C211.536 241.995 212.369 241.995 212.845 242.232L218.794 245.675C219.27 245.912 219.27 246.387 218.675 246.743L212.845 250.186C212.25 250.542 211.417 250.542 210.941 250.305Z" fill="#553DB4"/>
<path d="M220.105 255.528L214.156 252.085C213.68 251.848 213.68 251.373 214.275 251.017L220.105 247.574C220.7 247.218 221.533 247.218 222.009 247.456L227.958 250.898C228.434 251.135 228.434 251.61 227.839 251.966L222.009 255.409C221.414 255.765 220.581 255.884 220.105 255.528Z" fill="#553DB4"/>
<path d="M229.267 260.87L223.318 257.427C222.842 257.19 222.842 256.715 223.437 256.359L229.267 252.916C229.862 252.56 230.695 252.56 231.171 252.797L237.12 256.24C237.596 256.477 237.596 256.952 237.001 257.308L231.171 260.751C230.576 261.107 229.743 261.107 229.267 260.87Z" fill="#553DB4"/>
<path d="M238.429 266.093L232.48 262.65C232.004 262.413 232.004 261.938 232.599 261.582L238.429 258.139C239.024 257.783 239.857 257.783 240.333 258.021L246.282 261.463C246.758 261.701 246.758 262.175 246.163 262.531L240.333 265.974C239.738 266.33 238.905 266.449 238.429 266.093Z" fill="#553DB4"/>
<path d="M247.711 271.435L241.761 267.992C241.285 267.755 241.285 267.28 241.88 266.924L247.711 263.481C248.305 263.125 249.138 263.125 249.614 263.362L255.564 266.805C256.04 267.042 256.04 267.517 255.445 267.873L249.614 271.316C249.019 271.672 248.186 271.672 247.711 271.435Z" fill="#553DB4"/>
<path d="M160.255 210.775L154.306 207.332C153.83 207.095 153.83 206.62 154.425 206.264L160.255 202.821C160.85 202.465 161.683 202.465 162.159 202.702L168.109 206.145C168.584 206.382 168.584 206.857 167.99 207.213L162.159 210.656C161.564 211.012 160.731 211.131 160.255 210.775Z" fill="#553DB4"/>
<path d="M151.213 205.551L145.263 202.109C144.787 201.871 144.787 201.397 145.382 201.04L151.213 197.598C151.807 197.242 152.64 197.242 153.116 197.479L159.066 200.922C159.541 201.159 159.541 201.634 158.947 201.99L152.997 205.433C152.521 205.789 151.688 205.789 151.213 205.551Z" fill="#553DB4"/>
<path d="M142.05 200.328L136.101 196.886C135.625 196.648 135.625 196.173 136.22 195.817L142.05 192.375C142.645 192.019 143.478 192.019 143.954 192.256L149.903 195.699C150.379 195.936 150.379 196.411 149.784 196.767L143.954 200.21C143.359 200.566 142.526 200.566 142.05 200.328Z" fill="#553DB4"/>
<path d="M132.888 195.105L126.939 191.663C126.463 191.425 126.463 190.95 127.058 190.594L132.888 187.152C133.483 186.795 134.316 186.795 134.792 187.033L140.741 190.475C141.217 190.713 141.217 191.188 140.622 191.544L134.792 194.986C134.197 195.342 133.364 195.342 132.888 195.105Z" fill="#553DB4"/>
<path d="M142.289 189.644L136.339 186.202C135.863 185.964 135.863 185.49 136.458 185.133L138.362 184.065C138.957 183.709 139.79 183.709 140.266 183.946L146.215 187.389C146.691 187.626 146.691 188.101 146.096 188.457L144.192 189.526C143.598 189.882 142.765 189.882 142.289 189.644Z" fill="#553DB4"/>
<path d="M154.187 196.53L148.238 193.087C147.762 192.85 147.762 192.375 148.357 192.019L150.261 190.95C150.856 190.594 151.688 190.594 152.164 190.832L158.114 194.274C158.59 194.512 158.59 194.986 157.995 195.343L156.091 196.411C155.496 196.767 154.663 196.767 154.187 196.53Z" fill="#553DB4"/>
<path d="M163.23 201.753L157.281 198.31C156.805 198.073 156.805 197.598 157.4 197.242L159.304 196.173C159.899 195.817 160.731 195.817 161.207 196.055L167.157 199.497C167.633 199.735 167.633 200.21 167.038 200.566L165.134 201.634C164.539 201.99 163.706 201.99 163.23 201.753Z" fill="#553DB4"/>
<path d="M172.39 206.976L166.441 203.533C165.965 203.296 165.965 202.821 166.56 202.465L168.464 201.397C169.059 201.04 169.892 201.04 170.368 201.278L176.317 204.72C176.793 204.958 176.793 205.433 176.198 205.789L174.294 206.857C173.699 207.213 172.866 207.213 172.39 206.976Z" fill="#553DB4"/>
<path d="M181.433 212.199L175.484 208.757C175.008 208.519 175.008 208.044 175.603 207.688L177.507 206.62C178.102 206.264 178.935 206.264 179.41 206.501L185.36 209.944C185.836 210.181 185.836 210.656 185.241 211.012L183.337 212.08C182.742 212.437 181.909 212.437 181.433 212.199Z" fill="#553DB4"/>
<path d="M232.242 241.401L226.293 237.959C225.817 237.721 225.817 237.247 226.412 236.891L228.315 235.822C228.91 235.466 229.743 235.466 230.219 235.703L236.168 239.146C236.644 239.383 236.644 239.858 236.049 240.214L234.146 241.283C233.551 241.639 232.718 241.758 232.242 241.401Z" fill="#553DB4"/>
<path d="M241.285 246.625L235.336 243.182C234.86 242.945 234.86 242.47 235.455 242.114L237.358 241.045C237.953 240.689 238.786 240.689 239.262 240.927L245.211 244.369C245.687 244.607 245.687 245.081 245.092 245.437L243.189 246.506C242.594 246.862 241.761 246.981 241.285 246.625Z" fill="#553DB4"/>
<path d="M250.328 251.848L244.378 248.405C243.903 248.168 243.903 247.693 244.497 247.337L246.401 246.268C246.996 245.912 247.829 245.912 248.305 246.15L254.254 249.592C254.73 249.83 254.73 250.305 254.135 250.661L252.231 251.729C251.637 252.085 250.804 252.204 250.328 251.848Z" fill="#553DB4"/>
<path d="M259.49 257.19L253.541 253.747C253.065 253.51 253.065 253.035 253.66 252.679L255.563 251.61C256.158 251.254 256.991 251.254 257.467 251.492L263.416 254.934C263.892 255.172 263.892 255.646 263.297 256.003L261.394 257.071C260.799 257.427 259.966 257.427 259.49 257.19Z" fill="#553DB4"/>
<path d="M169.418 216.116L163.468 212.674C162.992 212.436 162.992 211.962 163.587 211.606L169.418 208.163C170.013 207.807 170.845 207.807 171.321 208.044L177.271 211.487C177.747 211.724 177.747 212.199 177.152 212.555L171.321 215.998C170.726 216.354 169.894 216.354 169.418 216.116Z" fill="#553DB4"/>
<path d="M178.578 221.34L172.628 217.897C172.153 217.66 172.153 217.185 172.747 216.829L178.578 213.386C179.173 213.03 180.006 213.03 180.482 213.267L186.431 216.71C186.907 216.947 186.907 217.422 186.312 217.778L180.482 221.221C179.887 221.577 179.054 221.696 178.578 221.34Z" fill="#553DB4"/>
<path d="M187.74 226.681L181.791 223.239C181.315 223.002 181.315 222.527 181.91 222.171L187.74 218.728C188.335 218.372 189.168 218.372 189.644 218.609L195.593 222.052C196.069 222.289 196.069 222.764 195.474 223.12L189.644 226.563C189.049 226.919 188.216 226.919 187.74 226.681Z" fill="#553DB4"/>
<path d="M197.021 231.905L191.072 228.462C190.596 228.225 190.596 227.75 191.191 227.394L197.021 223.951C197.616 223.595 198.449 223.595 198.925 223.832L204.874 227.275C205.35 227.512 205.35 227.987 204.755 228.343L198.925 231.786C198.33 232.142 197.497 232.261 197.021 231.905Z" fill="#553DB4"/>
<path d="M206.183 237.247L200.234 233.804C199.758 233.567 199.758 233.092 200.353 232.736L206.183 229.293C206.778 228.937 207.611 228.937 208.087 229.174L214.036 232.617C214.512 232.854 214.512 233.329 213.917 233.685L208.087 237.128C207.492 237.484 206.659 237.484 206.183 237.247Z" fill="#553DB4"/>
<path d="M215.345 242.47L209.396 239.027C208.92 238.79 208.92 238.315 209.515 237.959L215.345 234.516C215.94 234.16 216.773 234.16 217.249 234.398L223.198 237.84C223.674 238.078 223.674 238.552 223.079 238.908L217.249 242.351C216.654 242.707 215.821 242.826 215.345 242.47Z" fill="#553DB4"/>
<path d="M224.507 247.812L218.558 244.369C218.082 244.132 218.082 243.657 218.677 243.301L224.507 239.858C225.102 239.502 225.935 239.502 226.411 239.739L232.36 243.182C232.836 243.419 232.836 243.894 232.241 244.25L226.411 247.693C225.816 248.049 224.983 248.049 224.507 247.812Z" fill="#553DB4"/>
<path d="M233.668 253.035L227.718 249.592C227.242 249.355 227.242 248.88 227.837 248.524L233.668 245.081C234.263 244.725 235.095 244.725 235.571 244.963L241.521 248.405C241.997 248.643 241.997 249.117 241.402 249.474L235.571 252.916C234.976 253.272 234.144 253.391 233.668 253.035Z" fill="#553DB4"/>
<path d="M242.83 258.377L236.88 254.934C236.404 254.697 236.404 254.222 236.999 253.866L242.83 250.423C243.425 250.067 244.258 250.067 244.733 250.305L250.683 253.747C251.159 253.985 251.159 254.459 250.564 254.816L244.733 258.258C244.139 258.614 243.306 258.614 242.83 258.377Z" fill="#553DB4"/>
<path d="M117.063 216.71L99.5718 206.62C99.0959 206.382 99.0959 205.907 99.6908 205.551L105.521 202.109C106.116 201.753 106.949 201.753 107.425 201.99L124.916 212.08C125.392 212.318 125.392 212.793 124.797 213.149L118.966 216.591C118.372 216.947 117.539 217.066 117.063 216.71Z" fill="#553DB4"/>
<path d="M229.742 281.644L212.252 271.553C211.776 271.316 211.776 270.841 212.371 270.485L218.201 267.042C218.796 266.686 219.629 266.686 220.105 266.924L237.595 277.014C238.071 277.251 238.071 277.726 237.476 278.082L231.646 281.525C231.051 281.881 230.218 281.881 229.742 281.644Z" fill="#553DB4"/>
<path d="M192.974 272.147L187.025 268.704C186.549 268.467 186.549 267.992 187.144 267.636L194.164 263.6C194.759 263.244 195.592 263.244 196.068 263.481L202.017 266.924C202.493 267.161 202.493 267.636 201.898 267.992L194.878 272.028C194.283 272.384 193.45 272.503 192.974 272.147Z" fill="#553DB4"/>
<path d="M126.464 233.804L116.945 228.343C116.469 228.106 116.469 227.631 117.064 227.275L124.084 223.239C124.679 222.883 125.512 222.883 125.988 223.12L135.507 228.581C135.983 228.818 135.983 229.293 135.388 229.649L128.367 233.685C127.773 234.041 126.94 234.16 126.464 233.804Z" fill="#553DB4"/>
<path d="M184.171 267.161L174.652 261.7C174.176 261.463 174.176 260.988 174.771 260.632L181.791 256.596C182.386 256.24 183.219 256.24 183.695 256.477L193.214 261.938C193.69 262.175 193.69 262.65 193.095 263.006L186.075 267.042C185.48 267.398 184.647 267.398 184.171 267.161Z" fill="#553DB4"/>
<path d="M139.671 241.401L130.152 235.941C129.676 235.703 129.676 235.229 130.271 234.872L137.291 230.836C137.886 230.48 138.719 230.48 139.195 230.718L148.714 236.178C149.19 236.416 149.19 236.89 148.595 237.247L141.575 241.283C140.98 241.639 140.147 241.757 139.671 241.401Z" fill="#553DB4"/>
<path d="M139.195 230.836L180.483 254.578C180.959 254.815 180.959 255.409 180.483 255.646L173.344 259.801C172.868 260.039 172.035 260.039 171.44 259.801L130.152 236.059L139.195 230.836Z" fill="#553DB4"/>
<path d="M218.676 281.762L225.339 285.561C225.696 285.798 225.696 286.154 225.22 286.392L222.365 288.054C221.889 288.291 221.175 288.291 220.818 288.173L214.155 284.374C213.798 284.136 213.798 283.78 214.274 283.543L217.129 281.881C217.605 281.525 218.2 281.525 218.676 281.762Z" fill="#553DB4"/>
<path d="M209.395 276.42L216.058 280.219C216.415 280.457 216.415 280.813 215.939 281.05L213.084 282.712C212.608 282.949 211.894 282.949 211.537 282.831L204.874 279.032C204.517 278.795 204.517 278.438 204.993 278.201L207.848 276.539C208.324 276.302 209.038 276.183 209.395 276.42Z" fill="#553DB4"/>
<path d="M200.233 271.197L206.896 274.996C207.253 275.233 207.253 275.589 206.777 275.827L203.921 277.489C203.446 277.726 202.732 277.726 202.375 277.607L195.711 273.809C195.355 273.571 195.355 273.215 195.83 272.978L198.686 271.316C199.162 270.96 199.876 270.96 200.233 271.197Z" fill="#553DB4"/>
<path d="M214.51 273.571L221.173 277.37C221.53 277.607 221.53 277.964 221.054 278.201L218.199 279.863C217.723 280.1 217.009 280.1 216.652 279.982L209.989 276.183C209.632 275.946 209.632 275.589 210.108 275.352L212.963 273.69C213.439 273.334 214.034 273.334 214.51 273.571Z" fill="#553DB4"/>
<path d="M224.271 143.467L218.559 140.143C218.083 139.787 217.607 139.074 217.607 138.362C217.607 137.65 217.964 137.294 218.559 137.65L224.271 140.974C224.747 141.33 225.222 142.042 225.222 142.754C225.222 143.467 224.865 143.704 224.271 143.467Z" fill="#553DB4"/>
<path d="M237.836 151.301L229.507 146.434C229.031 146.078 228.555 145.366 228.555 144.654C228.555 143.941 228.912 143.585 229.507 143.941L237.836 148.809C238.311 149.165 238.787 149.877 238.787 150.589C238.787 151.183 238.311 151.539 237.836 151.301Z" fill="#553DB4"/>
<path d="M221.534 173.619L215.823 170.295C215.347 169.939 214.871 169.226 214.871 168.514C214.871 167.802 215.228 167.446 215.823 167.802L221.534 171.126C222.01 171.482 222.486 172.194 222.486 172.906C222.486 173.619 222.01 173.975 221.534 173.619Z" fill="#553DB4"/>
<path d="M233.552 180.622L225.223 175.755C224.747 175.399 224.271 174.687 224.271 173.975C224.271 173.262 224.628 172.906 225.223 173.262L233.552 178.129C234.028 178.486 234.504 179.198 234.504 179.91C234.504 180.622 234.028 180.86 233.552 180.622Z" fill="#553DB4"/>
<path d="M208.684 139.787L205.114 137.769C204.638 137.412 204.162 136.7 204.162 135.988C204.162 135.276 204.519 134.92 205.114 135.276L208.684 137.294C209.159 137.65 209.635 138.362 209.635 139.074C209.635 139.787 209.278 140.143 208.684 139.787Z" fill="#553DB4"/>
<path d="M220.819 152.014L209.991 145.722C209.515 145.366 209.039 144.654 209.039 143.941C209.039 143.229 209.396 142.873 209.991 143.229L220.819 149.521C221.295 149.877 221.771 150.589 221.771 151.301C221.771 152.014 221.414 152.37 220.819 152.014Z" fill="#553DB4"/>
<path d="M213.68 158.543L210.11 156.525C209.634 156.168 209.158 155.456 209.158 154.744C209.158 154.032 209.515 153.676 210.11 154.032L213.68 156.05C214.156 156.406 214.632 157.118 214.632 157.83C214.632 158.543 214.275 158.899 213.68 158.543Z" fill="#553DB4"/>
<path d="M237.717 193.68L228.198 188.22C227.722 187.864 227.246 187.151 227.246 186.439C227.246 185.727 227.603 185.371 228.198 185.727L237.717 191.187C238.193 191.544 238.669 192.256 238.669 192.968C238.669 193.562 238.312 193.918 237.717 193.68Z" fill="#553DB4"/>
<path d="M212.609 168.514L210.348 167.208C209.872 166.852 209.396 166.14 209.396 165.428C209.396 164.715 209.753 164.359 210.348 164.715L212.609 166.021C213.085 166.377 213.561 167.09 213.561 167.802C213.561 168.514 213.204 168.87 212.609 168.514Z" fill="#553DB4"/>
<path d="M213.323 179.554L210.468 177.892C209.992 177.536 209.516 176.824 209.516 176.111C209.516 175.399 209.873 175.043 210.468 175.399L213.323 177.061C213.799 177.417 214.275 178.13 214.275 178.842C214.275 179.554 213.918 179.91 213.323 179.554Z" fill="#553DB4"/>
<path d="M224.389 185.964L216.893 181.691C216.417 181.335 215.941 180.622 215.941 179.91C215.941 179.198 216.298 178.842 216.893 179.198L224.389 183.471C224.865 183.827 225.341 184.54 225.341 185.252C225.341 185.964 224.865 186.202 224.389 185.964Z" fill="#553DB4"/>
<path d="M215.941 186.439L210.587 183.353C210.111 182.997 209.635 182.284 209.635 181.572C209.635 180.86 209.992 180.504 210.587 180.86L215.941 183.946C216.417 184.302 216.893 185.015 216.893 185.727C216.893 186.439 216.536 186.677 215.941 186.439Z" fill="#553DB4"/>
<path d="M245.926 198.31L242.475 196.292C241.999 195.936 241.523 195.224 241.523 194.511C241.523 193.799 241.88 193.443 242.475 193.799L245.926 195.817C246.402 196.173 246.878 196.885 246.878 197.598C246.878 198.31 246.402 198.666 245.926 198.31Z" fill="#553DB4"/>
<path d="M226.889 166.14L217.37 160.679C216.894 160.323 216.418 159.611 216.418 158.899C216.418 158.186 216.775 157.83 217.37 158.186L226.889 163.647C227.365 164.003 227.841 164.715 227.841 165.428C227.841 166.14 227.484 166.496 226.889 166.14Z" fill="#553DB4"/>
<path d="M226.649 160.679L210.11 151.183C209.634 150.827 209.158 150.114 209.158 149.402C209.158 148.69 209.515 148.334 210.11 148.69L226.649 158.186C227.125 158.543 227.601 159.255 227.601 159.967C227.601 160.679 227.125 161.035 226.649 160.679Z" fill="#553DB4"/>
<path d="M219.748 167.327L210.229 161.866C209.753 161.51 209.277 160.798 209.277 160.086C209.277 159.374 209.634 159.017 210.229 159.374L219.748 164.834C220.224 165.19 220.7 165.903 220.7 166.615C220.7 167.327 220.224 167.683 219.748 167.327Z" fill="#553DB4"/>
<path d="M234.147 170.295L230.696 168.277C230.22 167.921 229.744 167.208 229.744 166.496C229.744 165.784 230.101 165.428 230.696 165.784L234.147 167.802C234.623 168.158 235.098 168.87 235.098 169.582C235.098 170.295 234.623 170.651 234.147 170.295Z" fill="#553DB4"/>
<path d="M263.418 165.903L243.071 154.15C242.595 153.794 242.119 153.082 242.119 152.37C242.119 151.658 242.476 151.301 243.071 151.658L263.418 163.41C263.893 163.766 264.369 164.478 264.369 165.19C264.369 165.903 263.893 166.259 263.418 165.903Z" fill="#553DB4"/>
<path d="M221.89 179.198L210.468 172.669C209.992 172.313 209.516 171.601 209.516 170.888C209.516 170.176 209.873 169.82 210.468 170.176L221.89 176.705C222.366 177.061 222.842 177.773 222.842 178.486C222.723 179.198 222.366 179.435 221.89 179.198Z" fill="#553DB4"/>
<path d="M213.443 137.175L205.114 132.308C204.638 131.952 204.162 131.24 204.162 130.527C204.162 129.815 204.519 129.459 205.114 129.815L213.443 134.682C213.919 135.038 214.395 135.751 214.395 136.463C214.395 137.175 214.038 137.531 213.443 137.175Z" fill="#553DB4"/>
<path d="M215.705 191.544L205.948 185.964C205.472 185.608 204.996 184.896 204.996 184.184C204.996 183.471 205.353 183.115 205.948 183.471L215.705 189.051C216.181 189.407 216.657 190.119 216.657 190.831C216.657 191.544 216.181 191.9 215.705 191.544Z" fill="#553DB4"/>
<path d="M139.243 14.5208L114.394 0.222266C113.929 -0.0562781 113.464 -0.0562767 113.092 0.129419L110.672 1.52214C110.672 1.52214 111.696 1.89353 112.347 2.17207V20.2774C112.347 21.763 113.278 23.4342 114.394 24.0842L138.219 37.8257V39.9612L140.639 38.5685C141.011 38.2899 141.29 37.7328 141.29 36.99V18.3276C141.197 16.842 140.359 15.1708 139.243 14.5208Z" fill="#EF8F00"/>
<path d="M136.821 39.7754L111.973 25.4768C110.856 24.8269 109.926 23.1556 109.926 21.6701V3.10049C109.926 1.61492 110.856 0.964981 111.973 1.61492L136.821 15.9135C137.938 16.5634 138.869 18.2347 138.869 19.7203V38.197C138.776 39.6826 137.845 40.3325 136.821 39.7754Z" fill="#FFAD00"/>
<path d="M120.257 19.0704C120.257 20.1846 119.512 20.5559 118.581 19.9989C117.651 19.4418 116.906 18.1419 116.906 17.1206C116.906 16.0064 117.651 15.635 118.581 16.1921C119.512 16.6563 120.257 17.9562 120.257 19.0704Z" fill="white"/>
<path d="M125.376 21.9486C125.376 23.0627 124.631 23.4341 123.701 22.877C122.77 22.3199 122.025 21.0201 122.025 19.9988C122.025 18.8846 122.77 18.5132 123.701 19.0703C124.631 19.6274 125.376 20.9272 125.376 21.9486Z" fill="white"/>
<path d="M130.399 24.9199C130.399 26.034 129.655 26.4054 128.724 25.8483C127.793 25.2913 127.049 23.9914 127.049 22.9701C127.049 21.8559 127.793 21.4845 128.724 22.0416C129.655 22.5058 130.399 23.8057 130.399 24.9199Z" fill="white"/>
<path d="M253.426 31.5224L208.014 5.41055C207.147 4.89177 206.28 4.89177 205.587 5.23762L201.254 7.83151C201.254 7.83151 203.161 8.52322 204.374 9.04199V42.0709C204.374 44.8377 205.934 47.9504 208.014 48.9879L251.519 74.0622V77.8666L256.026 75.2727C256.719 74.7539 257.239 73.8893 257.239 72.3329V38.6124C257.066 35.8455 255.333 32.7329 253.426 31.5224Z" fill="#A99DD8"/>
<path d="M248.917 77.6938L203.505 51.409C201.425 50.1985 199.865 47.0859 199.865 44.492V10.7714C199.865 8.00457 201.425 6.79409 203.505 8.00457L248.917 34.1164C250.997 35.3269 252.557 38.4396 252.557 41.0334V74.754C252.557 77.5209 250.997 78.7313 248.917 77.6938Z" fill="#E2DCFF"/>
<path d="M218.757 39.823C218.757 41.7252 217.371 42.5898 215.638 41.5523C213.904 40.5147 212.518 38.2667 212.518 36.1916C212.518 34.2894 213.904 33.4247 215.638 34.4623C217.371 35.4999 218.757 37.9208 218.757 39.823Z" fill="white"/>
<path d="M227.945 45.1835C227.945 47.0857 226.558 47.9503 224.825 46.9127C223.092 45.8752 221.705 43.6271 221.705 41.552C221.705 39.6498 223.092 38.7852 224.825 39.8228C226.558 40.8603 227.945 43.2813 227.945 45.1835Z" fill="white"/>
<path d="M237.306 50.5443C237.306 52.4465 235.92 53.3111 234.186 52.2736C232.453 51.236 231.066 48.988 231.066 46.9129C231.066 45.0107 232.453 44.1461 234.186 45.1836C235.92 46.2212 237.306 48.6421 237.306 50.5443Z" fill="white"/>
<path opacity="0.5" d="M105.112 127.728C105.058 146.222 118.049 168.724 134.092 177.924C140.679 181.737 146.868 182.664 151.795 181.204C155.103 178.14 157.276 173.309 157.743 166.923C156.142 166.348 154.527 165.549 152.812 164.578C136.769 155.377 123.777 132.876 123.831 114.382C123.864 113.44 123.861 112.634 123.944 111.778C119.226 110.002 114.911 109.724 111.172 110.844C107.345 114.207 105.139 119.981 105.112 127.728Z" fill="#E2DCFF"/>
<path d="M158.649 178.285L148.404 176.93L131.295 164.884L121.802 151.44L114.199 133.674L113.525 118.716L113.951 108.662L105.636 111.847L98.2572 119.454C98.2572 119.454 97.7506 128.17 97.5177 128.766C97.3714 129.312 100.473 146.676 100.473 146.676L107.766 161.506L115.882 172.167L126.09 181.851L135.989 186.406L146.693 187.957L156.266 183.353L158.649 178.285Z" fill="#FFAD00"/>
<path d="M105.242 106.767L120.128 98.173L115.935 105.902L105.242 106.767Z" fill="#FFAD00"/>
<path d="M144.046 172.178C128.002 162.978 115.011 140.476 115.065 121.982C115.077 116.206 116.357 111.428 118.61 107.935C116.785 107.373 115.02 106.315 113.149 106.472C111.616 110.011 110.668 114.366 110.753 119.51C110.773 140.73 125.663 166.521 144.031 177.148C148.02 179.461 151.956 180.881 155.478 181.386C156.599 179.931 157.471 178.043 157.933 176.045C153.832 176.336 149.054 175.056 144.046 172.178Z" fill="#EF8F00"/>
<path opacity="0.5" d="M105.113 127.728C105.059 146.222 118.05 168.724 134.094 177.924C140.68 181.737 146.869 182.664 151.796 181.204C155.574 177.754 157.779 171.98 157.807 164.233C157.861 145.739 144.869 123.237 128.826 114.037C122.24 110.224 116.05 109.297 111.124 110.757C107.346 114.207 105.14 119.981 105.113 127.728Z" fill="#E2DCFF"/>
<path d="M113.15 106.472C113.906 106.381 114.675 106.514 115.494 106.734L115.321 106.834L119.583 109.219L126.336 111.321L132.703 115.954L140.815 122.809L147.079 129.462L153.608 139.771L156.863 147.008L161.159 162.644L158.467 175.968C158.244 175.982 158.021 175.995 157.934 176.045C157.472 178.043 156.551 179.844 155.479 181.386C155.889 181.496 156.335 181.469 156.744 181.579L152.139 188.392L167.63 179.448C173.688 175.95 177.361 168.521 177.351 157.911C177.331 136.691 162.441 110.9 144.074 100.273C130.068 92.2036 118.071 95.2071 113.15 106.472Z" fill="#FFAD00"/>
<path d="M159.525 171.204L158.517 176.055C158.294 176.068 158.071 176.082 157.985 176.132C157.523 178.129 156.601 179.931 155.529 181.473C155.939 181.582 156.385 181.556 156.795 181.665L152.139 188.392L167.631 179.448C173.083 176.3 176.6 170 177.266 160.961L159.525 171.204Z" fill="#EF8F00"/>
<path d="M128.754 109.116C147.122 119.744 162.012 145.534 162.032 166.755C162.052 187.975 147.166 196.57 128.712 185.992C110.345 175.364 95.4549 149.574 95.5213 128.303C95.5878 107.033 110.387 98.4886 128.754 109.116ZM99.747 130.826C99.693 149.32 112.684 171.821 128.727 181.021C144.771 190.222 157.752 182.727 157.72 164.283C157.774 145.789 144.783 123.287 128.739 114.087C112.733 104.75 99.751 112.245 99.747 130.826Z" fill="#EF8F00"/>
<path d="M194.298 183.668L168.102 168.674L171.287 162.797L197.532 177.877L194.298 183.668Z" fill="#E2DCFF"/>
<path d="M195.933 178.107C197.231 177.358 198.25 177.923 198.294 179.398C198.338 180.873 197.193 182.688 195.895 183.437C194.597 184.187 193.578 183.621 193.534 182.146C193.577 180.621 194.635 178.857 195.933 178.107Z" fill="#983BE9"/>
<path d="M195.933 178.107C197.231 177.358 198.25 177.923 198.294 179.398C198.338 180.873 197.193 182.688 195.895 183.437C194.597 184.187 193.578 183.621 193.534 182.146C193.577 180.621 194.635 178.857 195.933 178.107Z" fill="#983BE9"/>
<path d="M169.738 163.114C171.036 162.364 172.055 162.93 172.099 164.405C172.142 165.88 170.998 167.694 169.699 168.444C168.401 169.193 167.382 168.628 167.339 167.153C167.381 165.628 168.44 163.863 169.738 163.114Z" fill="#E2DCFF"/>
<path d="M190.439 166.393C184.9 169.591 180.398 177.383 180.427 183.828C180.441 187.051 181.567 189.401 183.505 190.359L238.867 222.093L252.962 197.338L198.073 166.025C197.7 165.778 197.377 165.619 197.054 165.459C195.216 164.674 192.949 164.944 190.439 166.393Z" fill="#A99DD8"/>
<path d="M242.719 215.37L180.943 179.723C180.577 181.088 180.398 182.577 180.342 183.878C180.356 187.101 181.482 189.451 183.42 190.409L238.782 222.143L242.719 215.37Z" fill="#E2DCFF"/>
<path d="M252.969 213.841C249.051 220.628 242.697 224.296 238.778 222.033C234.858 219.77 234.858 212.434 238.776 205.647C242.695 198.86 249.048 195.192 252.968 197.455C256.887 199.717 256.888 207.054 252.969 213.841Z" fill="#E2DCFF"/>
<path d="M247.353 206.809C250.468 205.01 254.514 206.021 256.362 209.223C258.161 212.338 257.15 216.384 253.948 218.233C250.833 220.031 246.787 219.021 244.938 215.818C243.176 212.566 244.237 208.607 247.353 206.809Z" fill="#A99DD8"/>
<path d="M251.765 215.453C252.29 216.361 251.979 217.523 251.07 218.047C250.162 218.571 249.001 218.26 248.477 217.352C247.952 216.444 248.264 215.283 249.172 214.758C250.08 214.234 251.241 214.545 251.765 215.453Z" fill="white"/>
<path d="M235.094 215.156C235.121 218.601 236.334 220.902 238.408 221.896C236.817 220.738 235.841 218.648 235.84 215.648C235.811 209.203 240.313 201.411 245.852 198.213C248.448 196.714 250.765 196.53 252.603 197.315C250.738 196.084 248.098 196.108 245.156 197.807C239.567 200.918 235.065 208.71 235.094 215.156Z" fill="white"/>
<path d="M99.7453 130.826C99.6913 149.32 112.683 171.822 128.726 181.022C137.027 185.807 144.565 186.07 149.867 182.663C144.698 185.301 137.679 184.738 130.024 180.272C113.981 171.072 100.989 148.57 101.043 130.076C101.004 121.214 104.025 114.854 108.895 111.697C103.242 114.498 99.7888 121.108 99.7453 130.826Z" fill="white" fill-opacity="0.36"/>
<path d="M128.753 109.117C147.12 119.744 162.01 145.534 162.031 166.755C162.064 177.006 158.514 184.248 152.915 187.942C159.296 184.604 163.366 177.062 163.329 166.006C163.309 144.785 148.419 118.995 130.051 108.367C120.494 102.807 112.015 102.51 105.933 106.367C111.882 103.279 119.892 103.962 128.753 109.117Z" fill="white" fill-opacity="0.36"/>
<path d="M67.5547 348.316V291.158L86.1426 280.488V337.646L67.5547 348.316Z" fill="#C13D1A"/>
<path d="M67.5547 291.158L48.9668 280.488V337.646L67.5547 348.316V291.158Z" fill="#DB5126"/>
<path d="M86.1426 280.488L67.5547 269.819L48.9668 280.488L67.5547 291.158L86.1426 280.488Z" fill="#EF602E"/>
<path d="M67.5547 348.316V291.158L86.1426 280.488V337.646L67.5547 348.316Z" fill="#EF8F00"/>
<path d="M67.5547 291.158L48.9668 280.488V337.646L67.5547 348.316V291.158Z" fill="#FFAD00"/>
<path d="M86.1426 280.488L67.5547 269.819L48.9668 280.488L67.5547 291.158L86.1426 280.488Z" fill="#FFD988"/>
<path d="M18.5879 276.364V219.206L37.1758 208.537V265.695L18.5879 276.364Z" fill="#C13D1A"/>
<path d="M18.5879 219.206L0 208.537V265.695L18.5879 276.364V219.206Z" fill="#DB5126"/>
<path d="M37.1758 208.537L18.5879 197.867L0 208.537L18.5879 219.206L37.1758 208.537Z" fill="#EF602E"/>
<path d="M18.5879 276.364V219.206L37.1758 208.537V265.695L18.5879 276.364Z" fill="#553DB4"/>
<path d="M18.5879 219.206L0 208.537V265.695L18.5879 276.364V219.206Z" fill="#A99DD8"/>
<path d="M37.1758 208.537L18.5879 197.867L0 208.537L18.5879 219.206L37.1758 208.537Z" fill="#E2DCFF"/>
<path d="M170.484 362.307V305.148L189.072 294.479V351.637L170.484 362.307Z" fill="#C13D1A"/>
<path d="M170.484 305.148L151.896 294.479V351.637L170.484 362.307V305.148Z" fill="#DB5126"/>
<path d="M189.072 294.479L170.484 283.809L151.896 294.479L170.484 305.148L189.072 294.479Z" fill="#EF602E"/>
<path d="M170.484 362.307V305.148L189.072 294.479V351.637L170.484 362.307Z" fill="#553DB4"/>
<path d="M170.484 305.148L151.896 294.479V351.637L170.484 362.307V305.148Z" fill="#A99DD8"/>
<path d="M189.072 294.479L170.484 283.809L151.896 294.479L170.484 305.148L189.072 294.479Z" fill="#E2DCFF"/>
<path d="M281.412 323.333V266.175L300 255.505V312.663L281.412 323.333Z" fill="#C13D1A"/>
<path d="M281.412 266.175L262.824 255.505V312.663L281.412 323.333V266.175Z" fill="#DB5126"/>
<path d="M300 255.505L281.412 244.835L262.824 255.505L281.412 266.174L300 255.505Z" fill="#EF602E"/>
<path d="M281.412 323.333V266.175L300 255.505V312.663L281.412 323.333Z" fill="#EF8F00"/>
<path d="M281.412 266.175L262.824 255.505V312.663L281.412 323.333V266.175Z" fill="#FFAD00"/>
<path d="M300 255.505L281.412 244.835L262.824 255.505L281.412 266.174L300 255.505Z" fill="#FFD988"/>
</svg>
