<svg width="36" height="39" viewBox="0 0 36 39" fill="none" xmlns="http://www.w3.org/2000/svg">
<path d="M28.2546 12.5018C28.2546 9.71658 27.1482 7.0454 25.1787 5.07592C23.2092 3.10644 20.538 2 17.7528 2C14.9675 2 12.2963 3.10644 10.3268 5.07592C8.35736 7.0454 7.25092 9.71658 7.25092 12.5018C7.25092 24.754 2 28.2546 2 28.2546H33.5055C33.5055 28.2546 28.2546 24.754 28.2546 12.5018Z" stroke="#553DB4" stroke-width="3" stroke-linecap="round" stroke-linejoin="round"/>
<path d="M20.7787 35.2559C20.471 35.7863 20.0293 36.2267 19.4979 36.5328C18.9665 36.8389 18.364 37 17.7507 37C17.1374 37 16.5349 36.8389 16.0035 36.5328C15.4721 36.2267 15.0304 35.7863 14.7227 35.2559" stroke="#553DB4" stroke-width="3" stroke-linecap="round" stroke-linejoin="round"/>
</svg>
