<svg width="41" height="34" viewBox="0 0 41 34" fill="none" xmlns="http://www.w3.org/2000/svg">
<path d="M30.4146 2H10.8921C6.01146 2 2 5.94461 2 10.8921V17.3105C2 22.1911 5.9446 26.2025 10.8921 26.2025H19.6505L17.043 31.2169C16.8424 31.6849 17.2436 32.1529 17.7116 31.9523L26.47 27.9408C28.2751 27.1385 30.214 26.4031 32.1529 26.002C36.1644 25.1997 39.2398 21.5894 39.2398 17.3105V10.8921C39.3067 6.01147 35.3621 2 30.4146 2Z" stroke="#553DB4" stroke-width="3" stroke-miterlimit="10" stroke-linecap="round" stroke-linejoin="round"/>
<path d="M33.744 10.8211C33.5308 9.35901 32.5866 8.17107 31.3682 7.68372" stroke="#553DB4" stroke-width="3" stroke-miterlimit="10" stroke-linecap="round" stroke-linejoin="round"/>
<path d="M9.35449 12.4298H22.0575" stroke="#553DB4" stroke-width="3" stroke-miterlimit="10" stroke-linecap="round" stroke-linejoin="round"/>
<path d="M9.35449 17.2253H32.0193" stroke="#553DB4" stroke-width="3" stroke-miterlimit="10" stroke-linecap="round" stroke-linejoin="round"/>
</svg>
